<?xml version="1.0" encoding="UTF-8" standalone="no"?>
<svg
   viewBox="0 0 512 512"
   style="height: 512px; width: 512px;"
   version="1.1"
   id="svg24"
   sodipodi:docname="gladius.svg"
   inkscape:version="1.2.2 (732a01da63, 2022-12-09, custom)"
   xmlns:inkscape="http://www.inkscape.org/namespaces/inkscape"
   xmlns:sodipodi="http://sodipodi.sourceforge.net/DTD/sodipodi-0.dtd"
   xmlns="http://www.w3.org/2000/svg"
   xmlns:svg="http://www.w3.org/2000/svg">
  <defs
     id="defs28" />
  <sodipodi:namedview
     id="namedview26"
     pagecolor="#ffffff"
     bordercolor="#000000"
     borderopacity="0.25"
     inkscape:showpageshadow="2"
     inkscape:pageopacity="0.0"
     inkscape:pagecheckerboard="0"
     inkscape:deskcolor="#d1d1d1"
     showgrid="false"
     inkscape:zoom="1.6601562"
     inkscape:cx="173.77882"
     inkscape:cy="256.60235"
     inkscape:window-width="1920"
     inkscape:window-height="1043"
     inkscape:window-x="1920"
     inkscape:window-y="0"
     inkscape:window-maximized="1"
     inkscape:current-layer="svg24" />
  <g
     class=""
     transform="translate(0,0)"
     style="fill:#000000;fill-opacity:1"
     id="g22">
    <path
       d="M124.812 388.907a60.718 60.718 0 0 0 16.564 11.588L107.28 435.07a48.756 48.756 0 0 0-28.35-28.006l34.16-34.576a61.093 61.093 0 0 0 11.722 16.42zm209.598-276.44c-32.754 33.14-57.813 79.127-103.008 124.853-9.13 9.245-40.292 37.355-58.303 53.555l49.223 48.64c15.98-18.24 43.727-49.744 52.858-58.978 45.154-45.726 90.828-71.39 123.57-104.477C452.683 121.485 481 28.492 481 28.492s-92.67 29.4-146.59 83.976zM83.656 430.594a30.92 30.92 0 1 0 .26 43.727 30.817 30.817 0 0 0-.26-43.727zm91.13-40.603c11.16 0 20.822-2.81 24.497-6.56l20.885-21.103-69.88-69.047-20.823 21.135c-7.964 8.068-11.233 43.06 7.85 61.905 10.12 10.026 24.79 13.66 37.47 13.66z"
       fill="#fff"
       fill-opacity="1"
       id="path20"
       style="fill:#000000;fill-opacity:1" />
  </g>
</svg>
