<?xml version="1.0" encoding="UTF-8" standalone="no"?>
<svg
   style="height: 512px; width: 512px;"
   viewBox="0 0 512 512"
   version="1.1"
   id="svg26797"
   sodipodi:docname="stone-bust.svg"
   inkscape:version="1.2.2 (732a01da63, 2022-12-09, custom)"
   xmlns:inkscape="http://www.inkscape.org/namespaces/inkscape"
   xmlns:sodipodi="http://sodipodi.sourceforge.net/DTD/sodipodi-0.dtd"
   xmlns="http://www.w3.org/2000/svg"
   xmlns:svg="http://www.w3.org/2000/svg">
  <defs
     id="defs26801" />
  <sodipodi:namedview
     id="namedview26799"
     pagecolor="#ffffff"
     bordercolor="#000000"
     borderopacity="0.25"
     inkscape:showpageshadow="2"
     inkscape:pageopacity="0.0"
     inkscape:pagecheckerboard="0"
     inkscape:deskcolor="#d1d1d1"
     showgrid="false"
     inkscape:zoom="1.6601562"
     inkscape:cx="173.77882"
     inkscape:cy="256"
     inkscape:window-width="1920"
     inkscape:window-height="1043"
     inkscape:window-x="1920"
     inkscape:window-y="0"
     inkscape:window-maximized="1"
     inkscape:current-layer="svg26797" />
  <g
     class=""
     style="fill:#000000;fill-opacity:1"
     transform="translate(0,0)"
     id="g26795">
    <path
       d="M256 25c14.33 0 27.676 7.905 37.977 22.068C304.277 61.232 311 81.468 311 104c0 22.532-6.723 42.768-17.023 56.932C283.676 175.095 270.329 183 256 183c-14.33 0-27.676-7.905-37.977-22.068C207.723 146.768 201 126.532 201 104c0-22.532 6.722-42.768 17.023-56.932C228.324 32.905 241.671 25 256 25zm40 78h-80v18h31v23h18v-23h31zm4.777 77.732c22.269 3.505 48.815 9.312 84.93 17.334-18.385 31.94-30.507 71.784-36.947 105.024-30.784 3.249-71.261 9.48-92.76-11.819-23.106 21.245-68.115 17.842-92.838 11.424-6.459-33.161-18.556-72.814-36.869-104.629 36.115-8.022 62.661-13.829 84.93-17.334C223.35 193.18 238.89 201 256 201c17.11 0 32.65-7.82 44.777-20.268zM265 224h-18v48h18zm-8.992 91.117c25.254 11.781 65.5 11.202 89.556 7.113-1.059 7.611-1.768 14.623-2.12 20.77H168.556c-.358-6.232-1.08-13.351-2.164-21.084 29 2.217 65.796 6.81 89.615-6.799zM315 361v94h-18v-64h-82v64h-18v-94zm-36 48v46h-46v-46zm69.271 64l14 18H149.73l14-18z"
       fill="#fff"
       fill-opacity="1"
       id="path26793"
       style="fill:#000000;fill-opacity:1" />
  </g>
</svg>
