<?xml version="1.0" encoding="UTF-8" standalone="no"?>
<!-- Created with Inkscape (http://www.inkscape.org/) -->

<svg
   width="9.251mm"
   height="2.702mm"
   version="1.1"
   viewBox="0 0 9.251 2.702"
   id="svg30780"
   sodipodi:docname="checkbox_and_undermark.svg"
   inkscape:version="1.2.2 (732a01da63, 2022-12-09, custom)"
   xmlns:inkscape="http://www.inkscape.org/namespaces/inkscape"
   xmlns:sodipodi="http://sodipodi.sourceforge.net/DTD/sodipodi-0.dtd"
   xmlns="http://www.w3.org/2000/svg"
   xmlns:svg="http://www.w3.org/2000/svg">
  <defs
     id="defs30784" />
  <sodipodi:namedview
     id="namedview30782"
     pagecolor="#ffffff"
     bordercolor="#000000"
     borderopacity="0.25"
     inkscape:showpageshadow="2"
     inkscape:pageopacity="0.0"
     inkscape:pagecheckerboard="0"
     inkscape:deskcolor="#d1d1d1"
     inkscape:document-units="mm"
     showgrid="false"
     inkscape:zoom="18.733334"
     inkscape:cx="25.596084"
     inkscape:cy="1.9750889"
     inkscape:window-width="1920"
     inkscape:window-height="1043"
     inkscape:window-x="1920"
     inkscape:window-y="0"
     inkscape:window-maximized="1"
     inkscape:current-layer="svg30780" />
  <path
     d="m1.1744 2.2225c0.57925 0 1.0484-0.46919 1.0484-1.0481s-0.46918-1.0478-1.0484-1.0478c-0.57889 0-1.0481 0.46884-1.0481 1.0478s0.46918 1.0481 1.0481 1.0481"
     fill="#fff"
     id="path30774" />
  <path
     d="m1.1744 2.3488c-0.64768 0-1.1744-0.5267-1.1744-1.1744s0.52668-1.1744 1.1744-1.1744c0.64804 0 1.1747 0.5267 1.1747 1.1744s-0.52668 1.1744-1.1747 1.1744m0-2.0962c-0.50834 0-0.92178 0.41311-0.92178 0.92181 0 0.50835 0.41344 0.92181 0.92178 0.92181 0.50834 0 0.92214-0.41346 0.92214-0.92181 0-0.5087-0.4138-0.92181-0.92214-0.92181"
     fill="#231f20"
     id="path30776" />
  <path
     style="color:#000000;fill:#231f20;stroke-miterlimit:10;-inkscape-stroke:none"
     d="M 4.2324219,2.5253906 V 2.7011719 H 9.2519531 V 2.5253906 Z"
     id="path30778" />
</svg>
