<?xml version="1.0" encoding="UTF-8"?>
<!-- Created with Inkscape (http://www.inkscape.org/) -->
<svg width="2.349mm" height="2.349mm" version="1.1" viewBox="0 0 2.349 2.349" xmlns="http://www.w3.org/2000/svg">
 <g>
  <path d="m1.1744 2.2225c0.57926 0 1.0485-0.4692 1.0485-1.0481 0-0.5789-0.4692-1.0478-1.0485-1.0478-0.57891 0-1.0481 0.46885-1.0481 1.0478 0 0.57891 0.46919 1.0481 1.0481 1.0481" fill="#fff"/>
  <path d="m1.1745 1.8437c0.36997 0 0.66965-0.29968 0.66965-0.66943 0-0.36974-0.29968-0.6692-0.66965-0.6692-0.36975 0-0.66942 0.29945-0.66942 0.6692 0 0.36975 0.29967 0.66943 0.66942 0.66943" fill="#231f20"/>
  <path d="m1.1744 2.3488c-0.6477 0-1.1744-0.5267-1.1744-1.1744s0.5267-1.1744 1.1744-1.1744c0.64805 0 1.1748 0.52669 1.1748 1.1744s-0.5267 1.1744-1.1748 1.1744m0-2.0962c-0.50835 0-0.92181 0.4131-0.92181 0.9218 0 0.50836 0.41346 0.92181 0.92181 0.92181s0.92216-0.41345 0.92216-0.92181c0-0.5087-0.41381-0.9218-0.92216-0.9218" fill="#231f20"/>
 </g>
</svg>
