<?xml version="1.0" encoding="UTF-8"?>
<!-- Created with Inkscape (http://www.inkscape.org/) -->
<svg width="27.878mm" height="17.399mm" version="1.1" viewBox="0 0 27.878 17.399" xmlns="http://www.w3.org/2000/svg">
 <path d="m26.11 0h-24.342l-1.7681 1.7685v13.862l1.7681 1.7681h24.342l1.7685-1.7681v-13.862zm1.2834 1.9696v1.367c-0.14393-0.4311-0.34819-0.89076-0.63465-1.325v-0.02505h-0.0162c-0.40746-0.60925-0.98143-1.162-1.7886-1.5014h0.95497zm-3.1228 14.944h-20.672c-0.92181-0.22296-1.6602-0.7306-2.2144-1.5092v-13.402c0.48189-0.67557 1.1889-1.2626 2.2232-1.5176h20.672c0.92216 0.22296 1.6602 0.7306 2.2147 1.5092v13.402c-0.48189 0.67557-1.1889 1.2626-2.2236 1.5176m-23.785-12.776c0.10689-0.49989 0.29739-1.1222 0.63465-1.7191v12.567c-0.05891-0.10478-0.12136-0.20426-0.17462-0.31679-0.23213-0.4886-0.37324-0.97931-0.46002-1.3899zm26.273-1.7244c0.0589 0.10478 0.12136 0.20426 0.17463 0.3168 0.23177 0.4886 0.37324 0.97931 0.46002 1.3899v9.1408c-0.10689 0.50024-0.29739 1.1225-0.63465 1.7194zm-24.789-1.9283h0.95497c-0.80716 0.33937-1.3811 0.89218-1.7886 1.5014h-0.01623v0.02505c-0.28681 0.43427-0.49107 0.89394-0.63465 1.325v-1.367zm-1.4845 14.945v-1.3674c0.14358 0.43109 0.34784 0.89076 0.63465 1.325v0.02505h0.01623c0.40746 0.60925 0.98143 1.162 1.7886 1.5014h-0.95497zm25.424 1.4841h-0.95497c0.80716-0.33937 1.3811-0.89218 1.7886-1.5014h0.0162v-0.02505c0.28646-0.43427 0.49072-0.89394 0.63465-1.325v1.3674z" fill="#231f20"/>
</svg>
