<?xml version="1.0" encoding="UTF-8" standalone="no"?>
<!-- Created with Inkscape (http://www.inkscape.org/) -->

<svg
   width="12.375mm"
   height="3.302mm"
   viewBox="0 0 12.375 3.302"
   version="1.1"
   id="svg27864"
   inkscape:version="1.2.2 (732a01da63, 2022-12-09, custom)"
   sodipodi:docname="page_1_death_saves.svg"
   xmlns:inkscape="http://www.inkscape.org/namespaces/inkscape"
   xmlns:sodipodi="http://sodipodi.sourceforge.net/DTD/sodipodi-0.dtd"
   xmlns="http://www.w3.org/2000/svg"
   xmlns:svg="http://www.w3.org/2000/svg">
  <sodipodi:namedview
     id="namedview27866"
     pagecolor="#ffffff"
     bordercolor="#000000"
     borderopacity="0.25"
     inkscape:showpageshadow="2"
     inkscape:pageopacity="0.0"
     inkscape:pagecheckerboard="0"
     inkscape:deskcolor="#d1d1d1"
     inkscape:document-units="mm"
     showgrid="false"
     inkscape:zoom="12.1156"
     inkscape:cx="3.3015285"
     inkscape:cy="7.3459009"
     inkscape:window-width="1920"
     inkscape:window-height="1043"
     inkscape:window-x="1920"
     inkscape:window-y="0"
     inkscape:window-maximized="1"
     inkscape:current-layer="layer1" />
  <defs
     id="defs27861" />
  <g
     inkscape:label="Layer 1"
     inkscape:groupmode="layer"
     id="layer1">
    <path
       d="M 10.724797,0 C 9.868605,0 9.171164,0.657225 9.090025,1.49225 H 7.822494 C 7.741354,0.657225 7.043914,0 6.187722,0 5.33153,0 4.634089,0.657225 4.55295,1.49225 H 3.285419 C 3.204279,0.657225 2.506839,0 1.650647,0 0.740481,0 0,0.740481 0,1.650648 c 0,0.910519 0.740481,1.650999 1.650647,1.650999 0.714375,0 1.318331,-0.458611 1.547636,-1.095022 h 1.442156 c 0.229305,0.636411 0.833261,1.095022 1.547283,1.095022 0.714375,0 1.317978,-0.458611 1.547636,-1.095022 h 1.441803 c 0.229658,0.636411 0.833261,1.095022 1.547636,1.095022 0.910167,0 1.650647,-0.74048 1.650647,-1.650999 C 12.375444,0.740481 11.634964,0 10.724797,0 m -9.07415,2.984853 c -0.735541,0 -1.333853,-0.598664 -1.333853,-1.334205 0,-0.735542 0.598312,-1.334206 1.333853,-1.334206 0.735542,0 1.334206,0.598664 1.334206,1.334206 0,0.735541 -0.598664,1.334205 -1.334206,1.334205 M 3.247319,2.048228 c 0.0194,-0.07761 0.03034,-0.157692 0.0381,-0.239183 H 4.55295 c 0.0078,0.08149 0.0187,0.161572 0.0381,0.239183 z m 2.940403,0.936625 c -0.735542,0 -1.334205,-0.598664 -1.334205,-1.334205 0,-0.735542 0.598663,-1.334206 1.334205,-1.334206 0.735542,0 1.334206,0.598664 1.334206,1.334206 0,0.735541 -0.598664,1.334205 -1.334206,1.334205 M 7.784394,2.048228 c 0.0194,-0.07761 0.03034,-0.157692 0.0381,-0.239183 h 1.267531 c 0.0078,0.08149 0.0187,0.161572 0.0381,0.239183 z m 2.940403,0.936625 c -0.735542,0 -1.334206,-0.598664 -1.334206,-1.334205 0,-0.735542 0.598664,-1.334206 1.334206,-1.334206 0.735542,0 1.334205,0.598664 1.334205,1.334206 0,0.735541 -0.598663,1.334205 -1.334205,1.334205"
       style="fill:#231f20;fill-opacity:1;fill-rule:nonzero;stroke:none;stroke-width:0.352778"
       id="path4256" />
  </g>
</svg>
