<?xml version="1.0" encoding="UTF-8"?>
<!-- Created with Inkscape (http://www.inkscape.org/) -->
<svg width="58.188mm" height="17.597mm" version="1.1" viewBox="0 0 58.188 17.597" xmlns="http://www.w3.org/2000/svg">
 <path d="m0.12418 16.207c0.40252 0.12488 1.4464 0.58632 1.4464 1.2143v0.17639h55.046v-0.17639c0-0.62618 1.0446-1.089 1.4467-1.2143l0.12418-0.0384v-16.168l-1.1906 1e-3 -0.0508 0.0907c-0.01023 0.0198-0.24765 0.42509-0.8763 0.50941-0.05962-0.0787-0.14958-0.13335-0.25612-0.13335-0.10301 0-0.19085 0.0508-0.25082 0.12523-0.44697-0.0572-0.9532-0.24271-1.5152-0.56938l-0.04092-0.024h-49.826l-0.040922 0.024c-0.56198 0.32667-1.0682 0.51223-1.5152 0.56938-0.059619-0.0744-0.14781-0.12523-0.25047-0.12523-0.10654 0-0.19685 0.0547-0.25647 0.13335-0.62865-0.0843-0.86572-0.48966-0.87559-0.508l-0.050095-0.0935h-1.192v16.168zm0.57044-1.8094c-0.18803-0.32843-0.30374-0.57467-0.34184-0.65757v-9.0498c0.22719 1.6267 0.34184 3.096 0.34184 4.3833zm1.2118 2.8473c-0.14464-0.75459-1.1874-1.1984-1.5536-1.3321v-1.3938c0.44697 0.8008 1.3226 2.104 2.5569 2.7259zm54.374 0h-1.0022c1.234-0.62194 2.1096-1.9251 2.5566-2.7259v1.3938c-0.36583 0.13371-1.4093 0.5775-1.5543 1.3321m1.5543-3.5048c-0.0381 0.0833-0.15381 0.32949-0.34184 0.65828v-5.3248c0-1.2873 0.11465-2.7566 0.34184-4.3833zm-56.843-13.387c0.12665 0.17286 0.46355 0.52634 1.1053 0.6029 0.056797 0.0967 0.15699 0.16474 0.27728 0.16474 0.12488 0 0.22966-0.0727 0.28469-0.17568 0.48613-0.0607 1.0266-0.254 1.6168-0.59196h49.637c0.5902 0.33796 1.1303 0.53128 1.6168 0.59196 0.05468 0.10301 0.15981 0.17568 0.28469 0.17568 0.11994 0 0.22049-0.0681 0.27693-0.16474 0.6417-0.0766 0.97861-0.43004 1.1053-0.6029h0.63888v3.1736c-0.3429 2.0913-0.51823 3.9568-0.51823 5.5464v5.6212c-0.64911 1.0467-1.8602 2.5502-3.4618 2.5502h-49.522c-1.6006 0-2.8127-1.5046-3.4622-2.5513v-5.6201c0-1.5896-0.17533-3.4551-0.51823-5.5464v-3.1736z" fill="#231f20"/>
</svg>
