<?xml version="1.0" encoding="UTF-8"?>
<!-- Created with Inkscape (http://www.inkscape.org/) -->
<svg width="40.532mm" height="94.721mm" version="1.1" viewBox="0 0 40.532 94.721" xmlns="http://www.w3.org/2000/svg">
 <path d="m39.707 80.47-7.05e-4 -66.211c0.11148-1.8101 0.38029-5.4783 0.79622-6.828l0.02999-0.0977-0.08678-0.0536c-6e-3 -4e-3 -0.2667-0.16862-0.53093-0.44555 0.08573-0.4879 0.19614-0.94862 0.33726-1.3557l0.01729-0.049-0.35772-3.9871-0.15487-0.048c-0.36371-0.11289-1.4002-0.56621-1.4002-1.1515v-0.24243h-36.181v0.24236c0 0.58596-1.0107 1.0298-1.3998 1.1515l-0.15522 0.0483-0.35772 3.9867 0.01729 0.049c0.14111 0.4064 0.25082 0.86572 0.33655 1.3526-0.26317 0.2794-0.52423 0.44521-0.53022 0.44873l-0.08678 0.054 0.02999 0.0974c0.41522 1.348 0.68404 5.0077 0.79551 6.8202l7.06e-4 66.212c-0.11148 1.8101-0.38029 5.4783-0.79622 6.8277l-0.02999 0.0977 0.08678 0.054c6e-3 3e-3 0.2667 0.16792 0.53093 0.4452-0.08572 0.4879-0.19579 0.94862-0.33726 1.3557l-0.01729 0.0494 0.35772 3.9867 0.15522 0.048c0.38911 0.12171 1.3998 0.56585 1.3998 1.1515v0.24236h36.181v-0.24236c0-0.58561 1.0107-1.0298 1.4002-1.1515l0.15487-0.048 0.35772-3.9867-0.01729-0.0494c-0.14076-0.40605-0.25082-0.86572-0.33655-1.3526 0.26317-0.2794 0.52423-0.44521 0.53022-0.44838l0.08678-0.0543-0.02999-0.0974c-0.41522-1.3476-0.68404-5.0077-0.79551-6.8206m-0.5528 8.9761c0.0018 5e-3 0.06421 0.15204 0.1464 0.37112 0.03634 0.32808 0.06456 1.01-0.19191 1.7604-0.4251 1.2432-1.4647 2.1526-3.0124 2.6585h-31.671c-3.3242-1.0816-3.2879-3.6445-3.1965-4.4101 0.08537-0.23037 0.15275-0.38982 0.15699-0.40146 0.12806-0.54575-0.0501-1.0178-0.30198-1.3843 0.48719-2.6705 0.23918-6.0717 0.22684-6.2251l-7.06e-4 -68.891c0.01305-0.16898 0.26141-3.5765-0.22719-6.248 0.25082-0.36971 0.42721-0.84667 0.29598-1.4012-0.0018-5e-3 -0.06456-0.1524-0.14676-0.37112-0.03634-0.32773-0.06456-1.0096 0.19191-1.7604 0.42545-1.2432 1.4647-2.1526 3.0127-2.6585h31.671c3.3242 1.0816 3.2879 3.6445 3.1965 4.4101-0.08537 0.23037-0.15275 0.38982-0.15699 0.40182-0.12806 0.54574 0.05009 1.0174 0.30233 1.3839-0.48754 2.6709-0.23954 6.0717-0.22719 6.2251l7.06e-4 68.891c-0.01305 0.16863-0.26141 3.5761 0.22719 6.248-0.25047 0.36971-0.42686 0.84666-0.29563 1.4009m1.0675-81.998c-0.24659 0.87172-0.4385 2.4917-0.57609 4.0344-0.02575-1.1543-0.0085-2.8346 0.21661-4.3265 0.14534 0.13512 0.27764 0.2346 0.35948 0.2921m-0.82444-2.0687c0.01235-0.0289 0.16369-0.38452 0.30621-0.82479l0.07302 0.81456c-0.09772 0.28928-0.17992 0.60219-0.25082 0.92887-0.13582-0.26882-0.20743-0.58032-0.12841-0.91864m0.05997-3.5754 0.17886 1.996c-0.03598 0.1718-0.08431 0.35101-0.13723 0.52317-0.01129-0.34784-0.06668-0.77788-0.22366-1.2361-0.29034-0.84949-0.99342-1.9258-2.6578-2.6017h1.2831c0.18062 0.74259 1.1557 1.1716 1.5568 1.3187m-36.825-1.3187h1.2813c-2.3996 0.97402-2.8377 2.801-2.8737 3.8566-0.05503-0.1778-0.10583-0.36371-0.14323-0.54186l0.17886-1.996c0.40111-0.14711 1.3765-0.57609 1.5568-1.3187m-1.8761 4.8838 0.07303-0.81456c0.14111 0.43603 0.28998 0.78493 0.29916 0.80327 0.08043 0.34326 0.01094 0.65864-0.12347 0.93028-0.0702-0.32315-0.15205-0.63288-0.24871-0.91899m-0.08608 1.7858c0.22507 1.4898 0.24271 3.169 0.21696 4.3268-0.13794-1.5423-0.3295-3.1619-0.57609-4.0337 0.0822-0.0575 0.21449-0.15734 0.35913-0.29316m-0.35913 80.119c0.24659-0.87172 0.4385-2.4913 0.57609-4.034 0.02575 1.1539 0.0085 2.8346-0.21661 4.3261-0.14499-0.13512-0.27728-0.23495-0.35948-0.2921m0.82444 2.0687c-0.01235 0.0293-0.16369 0.38452-0.30621 0.82479l-0.07303-0.81421c0.09772-0.28928 0.18027-0.60184 0.25082-0.92851 0.13617 0.26882 0.20743 0.57997 0.12841 0.91793m-0.05997 3.5754-0.17886-1.9957c0.03598-0.17145 0.08467-0.35067 0.13723-0.52317 0.01129 0.34819 0.06668 0.77752 0.22366 1.2358 0.29034 0.85019 0.99342 1.9258 2.6578 2.6017h-1.2831c-0.18027-0.74259-1.1557-1.1716-1.5568-1.3187m36.825 1.3187h-1.2813c2.3996-0.97366 2.8377-2.801 2.8741-3.8562 0.05468 0.1778 0.10548 0.36336 0.14288 0.54151l-0.17886 1.996c-0.40111 0.14711-1.3762 0.57609-1.5568 1.3187m1.8761-4.8835-0.07302 0.81421c-0.14111-0.43639-0.28998-0.78422-0.2988-0.80292-0.08079-0.34361-0.01129-0.65864 0.12312-0.93063 0.0702 0.32315 0.15205 0.63288 0.24871 0.91934m0.08608-1.7861c-0.22507-1.4894-0.24271-3.1686-0.21696-4.3265 0.13794 1.5423 0.3295 3.1616 0.57609 4.0333-0.08184 0.0575-0.21414 0.15734-0.35913 0.29316" fill="#231f20"/>
</svg>
