<?xml version="1.0" encoding="UTF-8"?>
<!-- Created with Inkscape (http://www.inkscape.org/) -->
<svg width="18.429mm" height="17.384mm" version="1.1" viewBox="0 0 18.429 17.384" xmlns="http://www.w3.org/2000/svg">
 <path d="m16.661 0h-14.893l-1.7681 1.7685v13.848l1.7681 1.7681h14.893l1.7685-1.7681v-13.848zm1.2834 1.9696v1.367c-0.14393-0.43109-0.34819-0.89076-0.63465-1.325v-0.02505h-0.01623c-0.40746-0.60925-0.98143-1.162-1.7886-1.5014h0.95497zm-3.1228 14.93h-11.223c-0.92216-0.22296-1.6602-0.73096-2.2147-1.5095v-13.387c0.48225-0.67557 1.1889-1.2626 2.2236-1.5176h11.223c0.92216 0.22296 1.6602 0.7306 2.2147 1.5092v13.387c-0.4819 0.67557-1.1889 1.2626-2.2236 1.5176m-14.336-12.761c0.10654-0.49989 0.29704-1.1222 0.63429-1.7191v12.552c-0.05891-0.10478-0.121-0.20426-0.17462-0.31715-0.23178-0.48824-0.37289-0.97896-0.45967-1.3896zm16.824-1.7244c0.05891 0.10478 0.12136 0.20426 0.17462 0.31679 0.23178 0.4886 0.37324 0.97931 0.46002 1.3899v9.126c-0.10689 0.50024-0.29739 1.1225-0.63465 1.7191zm-15.34-1.9283h0.95497c-0.80751 0.33937-1.3811 0.89218-1.7889 1.5014h-0.01623v0.02505c-0.28646 0.43427-0.49071 0.89394-0.63429 1.325v-1.367zm-1.4845 14.93v-1.3674c0.14358 0.43074 0.34784 0.89076 0.63429 1.3247v0.0254h0.01623c0.40781 0.6089 0.98143 1.162 1.7889 1.5014h-0.95497zm15.974 1.4841h-0.95497c0.80716-0.33937 1.3811-0.89253 1.7886-1.5014h0.01623v-0.0254c0.28646-0.43392 0.49071-0.89394 0.63465-1.3247v1.3674z" fill="#231f20"/>
</svg>
