<?xml version="1.0" encoding="UTF-8"?>
<!-- Created with Inkscape (http://www.inkscape.org/) -->
<svg width="16.934mm" height="19.431mm" version="1.1" viewBox="0 0 16.934 19.431" xmlns="http://www.w3.org/2000/svg">
 <path d="m16.726 5.2994c-1.8634-0.37747-2.11-3.2149-2.1121-3.2434l-0.014816-0.18098-6.1313-1.875-6.132 1.875-0.014817 0.18098c-0.0021 0.028575-0.24906 2.866-2.1121 3.2434l-0.20849 0.04198v4.3977l0.0078 0.06632c0.02011 0.07902 2.0599 7.9174 8.3943 9.6075l0.06526 0.01764 0.06456-0.01764c6.3345-1.6902 8.3742-9.5285 8.394-9.6075l0.0081-4.464zm-0.30833 4.4041c-0.14358 0.53093-2.1608 7.5851-7.9498 9.1786-5.7898-1.5935-7.807-8.6476-7.9506-9.1786v-3.9349c1.7872-0.52176 2.2119-2.8134 2.2994-3.4872l5.6511-1.7279 5.6501 1.7279c0.08714 0.67381 0.51223 2.9654 2.2998 3.4872zm-2.8332-6.8467-0.01693-0.08467-4.7149-1.4422c-0.01693-0.20532-0.17992-0.3683-0.38453-0.3683-0.20532 0-0.3683 0.16263-0.38523 0.3683l-4.7156 1.4425-0.01693 0.08467c-0.13688 0.68898-0.58208 2.2962-1.8362 3.1306-0.06703-0.05468-0.14781-0.09243-0.24024-0.09243-0.21625 0-0.39123 0.17992-0.39123 0.40181 0 0.17074 0.10407 0.31468 0.25012 0.37253v2.9249l0.0056 0.04092c0.20144 0.69815 2.0729 6.7331 6.9416 8.4614 0.01164 0.21202 0.17851 0.38065 0.38806 0.38065 0.21131 0 0.3817-0.17357 0.38841-0.38911 1.9921-0.7052 3.7102-2.1777 5.1058-4.4016 1.143-1.8224 1.693-3.5613 1.8337-4.0506l0.0053-2.9662c0.1464-0.05786 0.25118-0.20179 0.25118-0.37289 0-0.2219-0.17533-0.40181-0.39158-0.40181-0.09243 0-0.17392 0.03775-0.2406 0.09243-1.2538-0.83432-1.6993-2.4416-1.8359-3.1309m-4.8193 14.965c-0.07232-0.08819-0.17604-0.14817-0.29704-0.14817-0.12171 0-0.22578 0.05997-0.29739 0.14852-4.6912-1.6665-6.5313-7.4789-6.756-8.249v-2.9034c0.14676-0.05821 0.25082-0.20179 0.25082-0.37289 0-0.02011-0.0085-0.03775-0.01164-0.05715 1.3035-0.85831 1.7914-2.4698 1.9551-3.2399l4.5551-1.3924c0.07232 0.093839 0.17851 0.15769 0.3041 0.15769 0.12488 0 0.23142-0.063853 0.30304-0.15769l4.5544 1.3924c0.16369 0.76976 0.65193 2.3816 1.9551 3.2403-0.0028 0.01975-0.01129 0.03669-0.01129 0.0568 0 0.1711 0.10407 0.31468 0.25082 0.37253v2.9041c-0.22472 0.77011-2.0652 6.5821-6.755 8.2483" fill="#231f20"/>
</svg>
