<?xml version="1.0" encoding="UTF-8"?>
<!-- Created with Inkscape (http://www.inkscape.org/) -->
<svg width="40.093mm" height="12.2mm" version="1.1" viewBox="0 0 40.093 12.2" xmlns="http://www.w3.org/2000/svg">
 <path d="m5.4398 0.0099426c-0.067733 0.027517-0.099483 0.10548-0.072672 0.17216 0.0067 0.015875 0.046567 0.10971 0.11924 0.24977-0.80645 0.028222-1.5706 0.2219-2.2588 0.55316 0.65899-0.077964 1.6902-0.020461 2.6751 0.17533 0.016933 0 0.029633-3.528e-4 0.043039-7.056e-4 0.051858 0.06985 0.10795 0.14076 0.16757 0.21272-4.493-1.0495-5.6614 1.2185-5.6614 1.2185 0.39441-0.40499 0.85443-0.69356 1.3413-0.89535 0.14852-0.040217 0.29633-0.073378 0.44379-0.10301-1.3575 1.0386-2.237 2.6709-2.237 4.5078 0 1.8369 0.87948 3.4692 2.237 4.5074-0.14746-0.02963-0.29528-0.06279-0.44379-0.10301-0.48683-0.20144-0.94686-0.49036-1.3413-0.89535 0 0 1.1684 2.2684 5.6614 1.2185-0.059619 0.07197-0.11571 0.14288-0.16757 0.21308-0.013406-3.53e-4 -0.026106-7.06e-4 -0.043039-7.06e-4 -0.98496 0.19544-2.0161 0.25294-2.6751 0.17533 0.68827 0.3309 1.4524 0.52458 2.2588 0.5528-0.072672 0.14041-0.11254 0.23389-0.11924 0.24977-0.026811 0.06703 0.00494 0.14464 0.072672 0.17216 0.06738 0.02787 0.14464-0.0046 0.17216-0.07232 0.00212-0.0046 1.0629-2.0193 2.4444-2.3989 0.41028-0.11254 0.8195-0.22648 1.2598-0.23848-0.71755 0.76941-1.6729 1.3148-2.751 1.5099-0.29139 0.28646-0.41804 0.55104-0.46214 0.77152 0.79763-0.05927 1.5494-0.28399 2.2225-0.64029l0.75671-0.48507c0.094192-0.07056 0.18556-0.14464 0.27481-0.22119h29.168l0.07056-0.11853c0.20285-0.34043 0.84138-1.2764 1.3575-1.5191l0.1397-0.06526v-5.225l-0.1397-0.065264c-0.51611-0.24271-1.1546-1.1786-1.3575-1.5191l-0.070556-0.11853h-29.168c-0.089253-0.076553-0.18062-0.15064-0.27481-0.22119l-0.75671-0.48507c-0.6731-0.35595-1.4249-0.58067-2.2225-0.64029 0.044097 0.22084 0.17074 0.48507 0.46214 0.77152 1.0781 0.19509 2.0334 0.74048 2.751 1.5102-0.44027-0.012347-0.84949-0.12629-1.2598-0.23883-1.3815-0.37924-2.4423-2.3939-2.4444-2.3989-0.027517-0.06738-0.10478-0.10019-0.17216-0.072319m4.4196 9.9205c0.1143-0.12382 0.22296-0.25294 0.32597-0.38664 0.43215 0.07126 0.87948 0.1965 1.3441 0.38664zm29.748-1.5159c-0.58561 0.35878-1.1561 1.2019-1.3554 1.5159h-1.5166c0.91405-0.39299 2.2327-1.089 2.872-2.0398zm-1.3554-6.1447c0.19932 0.31397 0.76976 1.1575 1.3554 1.5159v0.52387c-0.63923-0.95074-1.9579-1.6464-2.872-2.0398zm-28.393 0h1.67c-0.46461 0.19015-0.91193 0.31574-1.3441 0.38664-0.10301-0.1337-0.21167-0.26247-0.32597-0.38664m2.3125 7.055e-4 7.06e-4 -7.055e-4h23.845c0.84702 0.31538 3.0709 1.2562 3.5899 2.606v2.4486c-0.51894 1.3501-2.7428 2.2909-3.5899 2.606h-23.845l-7.06e-4 -7.05e-4c-0.629-0.31009-1.2333-0.51541-1.8126-0.62548 0.62936-0.91193 0.99977-2.0144 0.99977-3.2039 0-1.1896-0.37042-2.292-0.99977-3.2039 0.57926-0.11042 1.1836-0.31574 1.8126-0.62583m-5.4839-0.31221c0.34678 0.30057 0.76659 0.57714 1.2721 0.76906 0.49918 0.18944 1.0301 0.27164 1.5875 0.25753 0.68968 0.85266 1.106 1.935 1.106 3.1154 0 1.18-0.41628 2.2627-1.106 3.1154-0.55739-0.01411-1.0883 0.06773-1.5875 0.25718-0.50553 0.19191-0.92534 0.46849-1.2721 0.76906-0.49177 0.17216-1.5173 0.47131-2.7563 0.50482-1.881-0.70944-3.2262-2.5202-3.2262-4.6464 0-2.1265 1.3451-3.937 3.2262-4.6464 1.239 0.033161 2.2645 0.33232 2.7563 0.50447" fill="#231f20"/>
</svg>
