<?xml version="1.0" encoding="UTF-8"?>
<!-- Created with Inkscape (http://www.inkscape.org/) -->
<svg width="21.3mm" height="159.8mm" version="1.1" viewBox="0 0 21.3 159.8" xmlns="http://www.w3.org/2000/svg">
 <path d="m2.7719 2.884c0.36972-0.11853 0.76871-0.19403 1.2051-0.19403h1.567c0.20849 0.20496 0.42933 0.39229 0.65687 0.56868-0.8202-0.25118-2.1752-0.56198-3.429-0.37465m-2.4652 1.8524c-0.11818 0.15593-0.21978 0.30339-0.30656 0.43815v3.2706l0.41416-1.5409c-0.26176-0.85796-0.19579-1.6722-0.1076-2.1678m20.403 2.1396c0.33302-1.0672 0.12665-2.093 0.036-2.4437-0.31221-0.36512-0.70273-0.74224-1.1779-1.053-1.7159-0.83009-4.2302-0.03245-4.9555 0.23036-1.1702 0.76306-2.5344 1.1758-3.9624 1.1758-1.4288 0-2.7933-0.41275-3.9635-1.1762-0.72708-0.26282-3.2463-1.0622-4.9615-0.22648-0.47201 0.30939-0.86007 0.68404-1.1709 1.0474-0.0899 0.3489-0.29774 1.378 0.0356 2.4458l8e-3 0.02469-7e-3 0.02434-0.5909 2.1982v141.56l0.59761 2.2218-8e-3 0.0243c-0.33302 1.0675-0.12665 2.0934-0.036 2.444 0.31221 0.36513 0.70273 0.74189 1.1779 1.0527 1.7159 0.83044 4.2302 0.0325 4.9555-0.23001 1.1702-0.76306 2.5344-1.1758 3.9624-1.1758 1.4288 0 2.7933 0.41275 3.9635 1.1762 0.72708 0.26282 3.2466 1.0622 4.9615 0.22649 0.47201-0.30939 0.86007-0.68404 1.1709-1.0474 0.09-0.3489 0.29774-1.378-0.0356-2.4462l-8e-3 -0.0243 7e-3 -0.0243 0.59125-2.1982v-141.56l-0.59796-2.2218zm-3.1609-5.4247h1.1172l-0.25436-0.33867h-2.8504c-0.0829-0.0028-0.16228-0.0127-0.24659-0.0127v0.0127h-1.7466c0.12312 0.10619 0.23918 0.22013 0.34995 0.33867h2.9475c2.1879 0.48401 3.7398 1.8708 4.4341 2.6091v0.647c-0.69991-0.96414-2.013-2.2821-3.9769-2.2821h-4.3812c-0.0476-0.08537-0.13546-0.1457-0.23989-0.1457-0.1531 0-0.27799 0.12488-0.27799 0.27799 0 0.15346 0.12489 0.27799 0.27799 0.27799 0.10443 0 0.19227-0.06032 0.23989-0.1457h2.4201c-1.294 1.1786-2.9517 1.8309-4.7117 1.8309s-3.4174-0.65229-4.7117-1.8309h2.4197c0.0476 0.08537 0.13547 0.1457 0.23989 0.1457 0.15311 0 0.27799-0.12453 0.27799-0.27799 0-0.15311-0.12488-0.27799-0.27799-0.27799-0.10442 0-0.19226 0.06032-0.23989 0.1457h-4.3812c-1.9643 0-3.2776 1.3187-3.9769 2.2825v-0.647c0.69321-0.73836 2.243-2.1244 4.4305-2.6088h2.9503c0.11077-0.11924 0.22683-0.23283 0.3496-0.33937h-1.7456v-0.0127c-0.084 0-0.16368 0.0099-0.24659 0.0127h-2.8508l-0.25471 0.33937h1.1165c-1.7741 0.55951-3.0674 1.6595-3.7493 2.3558v-0.89288s1.2862-0.76553 1.6143-1.463h0.68792l0.45296-0.60396h2.5728c0.99625-0.12594 2.2528-0.35878 2.8473-0.77047 0 0 0.42263-0.25647 0.42263 0.16263 0 0.25612-0.96626 0.47554-1.7159 0.60784h0.96061c0.036-0.03493 0.084-0.0568 0.13794-0.0568 0.042 0 0.0783 0.01588 0.11077 0.03845 0.72531-0.50976 1.6062-0.81139 2.558-0.81139 0.9518 0 1.833 0.30162 2.5587 0.81139 0.0321-0.02258 0.0688-0.03845 0.11077-0.03845 0.054 0 0.10231 0.02187 0.13794 0.0568h0.96061c-0.74965-0.13229-1.7159-0.35172-1.7159-0.60784 0-0.4191 0.42263-0.16263 0.42263-0.16263 0.59443 0.41169 1.851 0.64452 2.8473 0.77047h2.5728l0.45226 0.60325h0.68862c0.32808 0.69815 1.6147 1.463 1.6147 1.463v0.89323c-0.68262-0.69674-1.9766-1.7967-3.7507-2.3562m-4.172-0.27481c-0.0183 6e-3 -0.0374 0.01164-0.0582 0.01164-0.10936 0-0.19826-0.0889-0.19826-0.19826 0-0.0018 1e-3 -0.0032 1e-3 -0.0049-0.69991-0.49601-1.5515-0.79022-2.4723-0.79022-0.92039 0-1.772 0.29422-2.4716 0.78987 0 0.0018 1e-3 0.0035 1e-3 0.0053 0 0.10936-0.0889 0.19826-0.19826 0.19826-0.0208 0-0.0399-0.0056-0.0586-0.01164-0.10548 0.08678-0.20638 0.17886-0.30339 0.27517h0.32138c0.72002-0.64382 1.6672-1.0386 2.7093-1.0386 1.0421 0 1.9897 0.39476 2.7097 1.0386h0.32103c-0.0967-0.09631-0.19756-0.18838-0.30304-0.27517m7.5085 5.7277 0.41416 1.5395v-3.2692c-0.0871-0.13406-0.18803-0.28152-0.30621-0.43674 0.0878 0.496 0.15381 1.3095-0.10795 2.1664m-3.5627-4.2143h-1.5681c-0.20814 0.20532-0.42933 0.39229-0.65687 0.56903 0.82021-0.25082 2.1752-0.56162 3.4297-0.375-0.36972-0.11818-0.76835-0.19403-1.2047-0.19403m-3.5e-4 154.42c0.43638 0 0.83537-0.0751 1.2051-0.19368-1.2538 0.18733-2.6084-0.12347-3.429-0.375 0.22754 0.17639 0.44838 0.36372 0.65687 0.56868zm3.6703-2.0461c0.11818-0.15628 0.21978-0.30375 0.30691-0.43851v-3.2702l-0.41451 1.5409c0.26176 0.85795 0.19579 1.6718 0.1076 2.1678m0.30691 0.0286v0.647c-0.69356 0.73801-2.2433 2.1241-4.4309 2.6084h-2.9503c-0.11077 0.11959-0.22683 0.23283-0.3496 0.33972h1.7456v0.0124c0.084 0 0.16404-0.01 0.24659-0.0124h2.8508l0.25471-0.33972h-1.1162c1.7738-0.55951 3.067-1.6591 3.7493-2.3558v0.89323s-1.2866 0.76553-1.6147 1.4626h-0.68792l-0.45296 0.6043h-2.5728c-0.99625 0.12595-2.2528 0.35878-2.8473 0.77047 0 0-0.42263 0.25612-0.42263-0.16263 0-0.25647 0.96626-0.4759 1.7159-0.60784h-0.96061c-0.0356 0.0349-0.084 0.0564-0.13794 0.0564-0.042 0-0.0783-0.0159-0.11077-0.0381-0.72531 0.50941-1.6062 0.81139-2.558 0.81139-0.9518 0-1.833-0.30198-2.5587-0.81139-0.0321 0.0222-0.0688 0.0381-0.11077 0.0381-0.054 0-0.10195-0.0215-0.13794-0.0564h-0.96061c0.74965 0.13194 1.7159 0.35137 1.7159 0.60784 0 0.41875-0.42263 0.16263-0.42263 0.16263-0.59443-0.4117-1.851-0.64453-2.8473-0.77048h-2.5728l-0.45226-0.6036h-0.68862c-0.32808-0.6978-1.6143-1.4626-1.6143-1.4626v-0.89359c0.68227 0.69709 1.9763 1.7967 3.7504 2.3562h-1.1172l0.25436 0.33902h2.8504c0.0833 3e-3 0.16228 0.0124 0.24659 0.0124v-0.0124h1.7466c-0.12311-0.10654-0.23918-0.22013-0.34995-0.33902h-2.9475c-2.1879-0.48366-3.7398-1.8708-4.4337-2.6088v-0.64699c0.69956 0.96414 2.0126 2.2818 3.9765 2.2818h4.3812c0.0476 0.0857 0.13546 0.14605 0.23989 0.14605 0.1531 0 0.27799-0.12488 0.27799-0.27834 0-0.1531-0.12489-0.27799-0.27799-0.27799-0.10443 0-0.19227 0.0603-0.23989 0.1457h-2.4197c1.294-1.1783 2.9513-1.8306 4.7113-1.8306s3.4177 0.65228 4.7121 1.8306h-2.4199c-0.0476-0.0854-0.13547-0.1457-0.23989-0.1457-0.1531 0-0.27799 0.12489-0.27799 0.27799 0 0.15346 0.12489 0.27834 0.27799 0.27834 0.10442 0 0.19226-0.0603 0.23989-0.14605h4.3812c1.9643 0 3.2776-1.3183 3.9772-2.2821m-7.6189 3.2558h-0.32138c-0.72002 0.64382-1.6672 1.0389-2.7093 1.0389-1.0421 0-1.9897-0.39513-2.7097-1.0389h-0.32103c0.0967 0.0967 0.19756 0.18838 0.30304 0.27517 0.0183-6e-3 0.0374-0.0116 0.0582-0.0116 0.10936 0 0.19826 0.0889 0.19826 0.19862 0 0-1e-3 3e-3 -1e-3 5e-3 0.69991 0.49636 1.5515 0.79058 2.4723 0.79058 0.9204 0 1.772-0.29422 2.4716-0.79022 0-1e-3 -1e-3 -3e-3 -1e-3 -3e-3 0-0.11148 0.0889-0.20038 0.19826-0.20038 0.0208 0 0.0399 6e-3 0.0586 0.0116 0.10548-0.0868 0.20638-0.17851 0.30339-0.27517m-13.267-5.4522-0.41381-1.5395v3.2688c0.0868 0.13405 0.18768 0.28151 0.30586 0.43709-0.0878-0.49636-0.15381-1.3095 0.10795-2.1664m5.1308 4.2139c0.20814-0.20532 0.42933-0.39229 0.65687-0.56903-0.82021 0.25118-2.1752 0.56197-3.4297 0.37535 0.36972 0.11818 0.76835 0.19368 1.2047 0.19368z" fill="#deddde"/>
</svg>
