<?xml version="1.0" encoding="UTF-8"?>
<!-- Created with Inkscape (http://www.inkscape.org/) -->
<svg width="39.885mm" height="9.927mm" version="1.1" viewBox="0 0 39.885 9.927" xmlns="http://www.w3.org/2000/svg">
 <path d="m39.884 2.7037-0.13935-0.06562c-0.51576-0.24236-1.155-1.1786-1.3575-1.5187l-0.07055-0.11853h-28.39v-1.0008h-2.425l-0.09278 0.11642c-0.15593 0.19579-0.34749 0.34996-0.55986 0.45967-0.52493-0.22613-1.0788-0.35348-1.6383-0.38276-0.0441-0.09349-0.13723-0.15946-0.24765-0.15946-0.11007 0-0.20355 0.06597-0.2473 0.15946-0.5595 0.02928-1.113 0.15663-1.6379 0.38276-0.21272-0.10971-0.40428-0.26388-0.55986-0.45967l-0.09278-0.11642h-2.4253v9.9268h2.4253l0.09278-0.11642c0.15558-0.19544 0.34678-0.34996 0.55915-0.45932 0.52388 0.22684 1.0732 0.35595 1.6401 0.38488 0.04445 0.09207 0.13688 0.15699 0.24589 0.15699 0.10901 0 0.20179-0.06491 0.24589-0.15699 0.56727-0.02893 1.1169-0.15804 1.6408-0.38488 0.21202 0.10936 0.40358 0.26388 0.55915 0.45932l0.09278 0.11642h2.425v-1.0008h28.391l0.07056-0.11853c0.20249-0.34043 0.84138-1.2764 1.3571-1.5191l0.1397-0.06526zm-2.4151 4.9738h-26.835v-5.4282h26.836c0.81774 0.46108 1.6394 1.0873 1.9297 1.8419v1.7434c-0.28998 0.75494-1.112 1.3815-1.9304 1.8429m-27.542-5.4282h0.44274v5.4282h-0.44274zm29.472 0.75248v0.52317c-0.63923-0.95038-1.9572-1.6461-2.8709-2.0391h1.5155c0.19967 0.31362 0.77047 1.1571 1.3554 1.5159m-3.5892-1.5159c0.27587 0.10266 0.69674 0.27093 1.1585 0.49883h-27.042v-0.49883zm-31.074-1.0319c0.04833 0.0762 0.12982 0.12912 0.22684 0.12912 0.09737 0 0.1785-0.05292 0.22754-0.12912 0.43991 0.02222 0.8756 0.1083 1.2947 0.25894-0.12876 0.03175-0.26141 0.04904-0.39582 0.04904h-2.2521c-0.13511 0-0.26741-0.01729-0.39546-0.04904 0.41839-0.15064 0.85443-0.23671 1.2943-0.25894m0.45402 9.0184c-0.04904-0.07549-0.13018-0.12912-0.22719-0.12912-0.09701 0-0.17815 0.05362-0.22648 0.12912-0.44027-0.02187-0.8763-0.10795-1.2947-0.25894 0.12806-0.03175 0.26035-0.04904 0.39546-0.04904h2.2521c0.13441 0 0.26705 0.01729 0.39582 0.04904-0.4191 0.15099-0.85513 0.23707-1.295 0.25894m2.6028-0.16298c-0.43991-0.48613-1.053-0.76235-1.7036-0.76235h-2.2521c-0.65088 0-1.2636 0.27622-1.7036 0.76235h-0.41063s-1.106-0.01164-1.106-1.4997v-5.6928c0-1.4884 1.106-1.4997 1.106-1.4997h0.41063c0.43991 0.48613 1.0527 0.762 1.7036 0.762h2.2521c0.65052 0 1.2636-0.27587 1.7036-0.762h0.41028s1.106 0.01129 1.106 1.4997v5.6928c0 1.488-1.106 1.4997-1.106 1.4997zm2.1336-1.3674h27.041c-0.46143 0.22754-0.8823 0.39617-1.1578 0.49883h-25.883zm28.118 0.49883h-1.5162c0.91405-0.39335 2.2324-1.089 2.8716-2.0401v0.52423c-0.58526 0.35842-1.1557 1.2019-1.3554 1.5159" fill="#221c1b"/>
</svg>
