<?xml version="1.0" encoding="UTF-8"?>
<!-- Created with Inkscape (http://www.inkscape.org/) -->
<svg width="65.263mm" height="70.227mm" version="1.1" viewBox="0 0 65.263 70.227" xmlns="http://www.w3.org/2000/svg">
 <path d="m65.263 62.865-6e-3 -0.1658-0.1651-0.0106c-7e-3 -3.5e-4 -0.55175-0.0579-0.7105-1.4143v-59.834l-0.15487-0.04833c-0.3937-0.12312-1.4153-0.57291-1.4153-1.1723v-0.22049h-60.359v0.22049c0 0.59937-1.022 1.0492-1.416 1.1723l-0.15487 0.04833v59.834c-0.1584 1.3564-0.70309 1.4139-0.7052 1.4143h-0.17639v0.17639c0 1.6386 0.375 2.9319 0.88159 3.9321v1.9886l0.15487 0.048c0.39405 0.12241 1.416 0.57115 1.416 1.1723v0.22048h60.359v-0.22048c0-0.59937 1.0216-1.0492 1.4153-1.1723l0.15487-0.0483v-1.9883c0.50659-1.0001 0.88159-2.2934 0.88159-3.9321m-0.77893-0.19156c0.15205 0.19685 0.30903 0.28822 0.4251 0.33091-0.0155 1.1455-0.22366 2.1086-0.52776 2.9132v-3.3987c0.0325 0.0547 0.066 0.10724 0.10266 0.15451m-63.162-58.866c0.05786-0.12065 0.15734-0.31926 0.29774-0.56444v57.867c0 1.197-0.10125 2.5541-0.29774 4.045zm0 62.583c0.31468-1.9844 0.47413-3.7578 0.47413-5.2807v-58.163c0.58385-0.94156 1.6231-2.2521 2.9926-2.5058h55.684c1.3688 0.25365 2.4088 1.5653 2.993 2.5072v58.162c0 1.5229 0.15945 3.2964 0.47413 5.2807v0.48225c-0.35066 0.63323-0.75142 1.1331-1.125 1.5124-0.82691 0.83926-1.6619 1.2612-1.9745 1.4005h-56.419c-0.45896-0.20602-2.0482-1.029-3.0999-2.9178zm62.618-1.2358c-0.1965-1.4908-0.29775-2.848-0.29775-4.045v-57.866c0.14041 0.24483 0.23989 0.44344 0.29775 0.56409zm0-63.395v1.2855c-0.44838-0.78669-1.2778-1.9872-2.4296-2.6042h0.88441c0.17039 0.73589 1.1564 1.173 1.5452 1.3187m-61.072-1.3187h0.88371c-1.1518 0.61701-1.9816 1.8175-2.4296 2.6042v-1.2855c0.38911-0.1457 1.3755-0.58279 1.5459-1.3187m-2.5146 62.564c0.11606-0.0427 0.27305-0.13406 0.4251-0.33091 0.03634-0.0473 0.0702-0.0998 0.10266-0.15451v3.4004c-0.30903-0.81315-0.51259-1.7773-0.52776-2.915m0.96873 5.4624v-0.9144c0.28928 0.43568 0.59514 0.79939 0.88618 1.0929 0.52493 0.53058 1.0463 0.89818 1.4527 1.1402h-0.79304c-0.17039-0.73589-1.1568-1.173-1.5459-1.3187m61.073 1.3187h-0.79375c0.4064-0.242 0.92781-0.6096 1.4527-1.1402 0.29069-0.29351 0.5969-0.65722 0.88618-1.0929v0.9144c-0.38876 0.1457-1.3748 0.58279-1.5452 1.3187" fill="#231f20"/>
</svg>
