<?xml version="1.0" encoding="UTF-8"?>
<!-- Created with Inkscape (http://www.inkscape.org/) -->
<svg width="63.221mm" height="9.558mm" version="1.1" viewBox="0 0 63.221 9.558" xmlns="http://www.w3.org/2000/svg">
 <path d="m2.5195 0.05997c-1.5776 1.0583-2.5195 2.8226-2.5195 4.7191s0.94192 3.6608 2.5202 4.7191l0.0889 0.05997h6.1408l0.0889-0.05997c0.33161-0.22225 0.63324-0.47766 0.90523-0.75671h51.909l0.07055-0.11853c0.2025-0.34008 0.84138-1.2764 1.3575-1.5187l0.13935-0.06562-7.05e-4 -4.5191-0.139-0.06562c-0.51611-0.24235-1.155-1.179-1.3578-1.5191l-0.07056-0.11818h-51.908c-0.2727-0.27905-0.57397-0.53446-0.90558-0.75671l-0.0889-0.05997h-6.1415zm-1.814 4.7191c0-1.6256 0.79058-3.1404 2.1198-4.0735h2.849c1.3109 0.57926 3.0857 0.90452 3.9564 1.0664 0.65088 0.85372 1.0227 1.9018 1.0227 3.006v0.0021c0 1.1042-0.37218 2.1519-1.0231 3.006-0.87066 0.16192-2.6455 0.48719-3.956 1.0664h-2.8487c-1.3293-0.93308-2.1202-2.4479-2.1202-4.0735m58.44-3.4773c0.84702 0.31468 3.0699 1.2545 3.5888 2.6049l7.06e-4 1.7438c-0.51894 1.3504-2.7428 2.2913-3.5895 2.606h-46.152c-0.22013-0.19685-0.69674-0.50341-1.5836-0.5842 0.25576-0.43251 0.82127-1.542 0.82127-2.8931s-0.5655-2.4606-0.82127-2.8931c0.88688-0.08079 1.3635-0.38735 1.5836-0.5842zm-48.036 0.60149c0.17427 0.27622 0.8569 1.4527 0.8569 2.8758 0 1.4231-0.68262 2.5996-0.8569 2.8758-0.16757-0.0046-0.34784-0.0014-0.54151 0.01129 0.50941-0.86219 0.79058-1.8542 0.79058-2.8871v-0.0011c0-1.0322-0.28116-2.0242-0.79022-2.8861 0.19332 0.0127 0.37359 0.01587 0.54116 0.01129m-2.5767 6.9494h-1.4732c0.8883-0.36124 1.6514-0.59619 2.3033-0.73872-0.24694 0.2727-0.52246 0.52282-0.83009 0.73872m1.8546-0.90064c1.0908-0.09878 1.7551 0.10407 2.1297 0.30445h-2.3499c0.07655-0.09913 0.14958-0.20073 0.22013-0.30445m50.993 0.30445h-1.5162c0.91405-0.393 2.2324-1.089 2.8713-2.0398v0.52388c-0.58526 0.35878-1.1557 1.2023-1.355 1.5159m1.3543-5.4391v0.52352c-0.63888-0.95074-1.9565-1.6461-2.8706-2.0391h1.5155c0.19932 0.31362 0.77011 1.1571 1.355 1.5155m-50.217-1.5155c-0.37465 0.20038-1.0389 0.40322-2.1297 0.30445-0.0702-0.10372-0.14323-0.20532-0.21978-0.30445zm-3.1538 0.14252c-0.65229-0.14252-1.415-0.37747-2.3036-0.73872h1.4736c0.30798 0.2159 0.58314 0.46602 0.83009 0.73872" fill="#231f20"/>
</svg>
