<?xml version="1.0" encoding="UTF-8" standalone="no"?>
<!-- Created with Inkscape (http://www.inkscape.org/) -->

<svg
   width="195.024mm"
   height="33.884998mm"
   viewBox="0 0 195.024 33.884998"
   version="1.1"
   id="svg6649"
   inkscape:version="1.2.2 (732a01da63, 2022-12-09, custom)"
   sodipodi:docname="page_1_header.svg"
   xmlns:inkscape="http://www.inkscape.org/namespaces/inkscape"
   xmlns:sodipodi="http://sodipodi.sourceforge.net/DTD/sodipodi-0.dtd"
   xmlns="http://www.w3.org/2000/svg"
   xmlns:svg="http://www.w3.org/2000/svg">
  <sodipodi:namedview
     id="namedview6651"
     pagecolor="#ffffff"
     bordercolor="#000000"
     borderopacity="0.25"
     inkscape:showpageshadow="2"
     inkscape:pageopacity="0.0"
     inkscape:pagecheckerboard="0"
     inkscape:deskcolor="#d1d1d1"
     inkscape:document-units="mm"
     showgrid="false"
     inkscape:zoom="2.1417558"
     inkscape:cx="518.03291"
     inkscape:cy="144.74106"
     inkscape:window-width="1920"
     inkscape:window-height="1043"
     inkscape:window-x="1920"
     inkscape:window-y="0"
     inkscape:window-maximized="1"
     inkscape:current-layer="layer1" />
  <defs
     id="defs6646" />
  <g
     inkscape:label="Layer 1"
     inkscape:groupmode="layer"
     id="layer1">
    <path
       d="m 20.228454,1.753306 c -0.152048,0.987777 0.07761,2.236611 0.07761,2.236611 0,0 -0.723195,-0.529167 -1.513417,-0.977195 C 18.323453,2.748139 17.924814,2.159 17.677517,1.725083 17.508536,1.425222 17.409758,1.202972 17.409758,1.202972 16.312267,2.38125 17.02135,3.767667 17.02135,3.767667 c -1.710619,-0.373945 -2.779889,0.06703 -2.779889,0.06703 3.238853,2.120195 1.517297,2.293056 -0.352778,3.178528 -1.866194,0.885472 -2.003425,1.986139 -2.003425,1.986139 2.233084,-0.733778 3.121731,0.204611 3.121731,0.204611 -1.20262,1.150056 -0.130175,2.945694 -0.130175,2.945694 1.167694,2.236611 4.060472,3.189111 6.649861,3.580695 2.564341,0.391583 4.833055,0.236361 4.833055,0.236361 l -5.898797,1.834444 -5.298369,1.337028 c 0,0 -5.2602695,-0.564444 -7.1931395,-5.0165 -1.930047,-4.455583 1.442861,-7.962194 1.104195,-8.1915 -0.321028,-0.218722 -0.73025,0.268111 -0.772937,0.321028 1.467909,-4.201583 5.8882145,-4.155722 6.0646035,-4.600222 0.179917,-0.448028 -0.871714,-0.47625 -0.871714,-0.47625 4.470047,-1.471083 6.734881,0.578556 6.734881,0.578556"
       style="fill:#231f20;fill-opacity:1;fill-rule:nonzero;stroke:none;stroke-width:0.352778"
       id="path64" />
    <path
       d="m 188.09776,13.76433 v 13.45565 c 5.13892,-0.02999 5.80743,0 6.68373,-1.138767 V 12.852047 c -1.64359,0.872772 -3.34186,0.899231 -6.68373,0.912283"
       style="fill:#ffffff;fill-opacity:1;fill-rule:nonzero;stroke:none;stroke-width:0.352778"
       id="path66"
       sodipodi:nodetypes="ccccc" />
    <path
       d="m 188.09776,13.76433 v 13.45565 c 5.13892,-0.02999 5.80743,0 6.68373,-1.138767 V 12.852047 c -1.64359,0.872772 -3.34186,0.899231 -6.68373,0.912283 z"
       style="fill:none;stroke:#231f20;stroke-width:0.485069;stroke-linecap:butt;stroke-linejoin:miter;stroke-miterlimit:10;stroke-dasharray:none;stroke-opacity:1"
       id="path68"
       sodipodi:nodetypes="ccccc" />
    <path
       d="m 187.88445,14.764455 c 5.72734,-0.01905 6.23958,-0.414866 6.75816,-0.812447 m -6.54544,12.169422 c 6.91515,0.787047 6.32601,-1.262592 6.63363,-1.324328"
       style="fill:none;stroke:#231f20;stroke-width:0.264583;stroke-linecap:butt;stroke-linejoin:miter;stroke-miterlimit:10;stroke-dasharray:none;stroke-opacity:1"
       id="path70"
       sodipodi:nodetypes="cccc" />
    <path
       d="m 59.231917,24.681391 c -0.0014,0.0049 -0.0053,0.0081 -0.0067,0.0127 -0.03105,0.108303 -0.0127,0.224367 0.05045,0.317853 0.07691,0.1143 1.914172,2.801761 4.312003,2.801761 0.533753,0 1.056216,-0.135114 1.576564,-0.415219 0.208491,-0.132292 0.408869,-0.266348 0.58173,-0.38735 1.262239,-0.773289 2.489906,-1.904648 2.934758,-2.329745 z"
       style="fill:#ffffff;fill-opacity:1;fill-rule:nonzero;stroke:none;stroke-width:0.352778"
       id="path72" />
    <path
       d="M 0.2425345,16.132527 V 29.361694 L 12.766498,27.725158 V 14.495639 Z"
       style="fill:#ffffff;fill-opacity:1;fill-rule:nonzero;stroke:none;stroke-width:0.352778"
       id="path74" />
    <path
       d="M 0.2425345,16.132527 V 29.361694 L 12.766498,27.725158 V 14.495991 Z"
       style="fill:none;stroke:#231f20;stroke-width:0.485069;stroke-linecap:butt;stroke-linejoin:miter;stroke-miterlimit:10;stroke-dasharray:none;stroke-opacity:1"
       id="path76" />
    <path
       d="M 0.5166425,28.379561 12.766498,26.64213 M 0.5166425,17.017647 12.766498,15.459075"
       style="fill:none;stroke:#231f20;stroke-width:0.264583;stroke-linecap:butt;stroke-linejoin:miter;stroke-miterlimit:10;stroke-dasharray:none;stroke-opacity:1"
       id="path78" />
    <path
       d="M 12.766498,14.496344 4.2222205,13.232341 v 13.229167 l 8.5442775,1.264003 z"
       style="fill:#c1c0c2;fill-opacity:1;fill-rule:nonzero;stroke:none;stroke-width:0.352778"
       id="path80" />
    <path
       d="M 12.766498,14.496344 4.2222205,13.232341 v 13.229167 l 8.5442775,1.264003 z"
       style="fill:none;stroke:#231f20;stroke-width:0.485069;stroke-linecap:butt;stroke-linejoin:miter;stroke-miterlimit:10;stroke-dasharray:none;stroke-opacity:1"
       id="path82" />
    <path
       d="m 81.494663,26.461508 c -21.785085,3.96875 -55.487004,-3.96875 -77.2720905,0 V 13.232341 c 21.7850865,-3.96875 55.4870055,3.96875 77.2720905,0 z"
       style="fill:#ffffff;fill-opacity:1;fill-rule:nonzero;stroke:none;stroke-width:0.352778"
       id="path84" />
    <path
       d="m 81.494663,26.461508 c -21.785085,3.96875 -55.487004,-3.96875 -77.2720905,0 V 13.232341 c 21.7850865,-3.96875 55.4870055,3.96875 77.2720905,0 z"
       style="fill:none;stroke:#231f20;stroke-width:0.485069;stroke-linecap:butt;stroke-linejoin:miter;stroke-miterlimit:10;stroke-dasharray:none;stroke-opacity:1"
       id="path86" />
    <path
       d="m 81.804402,25.183394 c 0,0 -7.231944,3.057172 -40.451616,0.117475 -23.463249,-2.07645 -35.1782935,-0.25647 -36.9908655,0.06103 M 81.494663,14.263158 c 0,0 -7.010399,2.835628 -40.230071,-0.104069 -23.463249,-2.07645 -35.1782945,-0.256117 -36.9908665,0.06103"
       style="fill:none;stroke:#231f20;stroke-width:0.264583;stroke-linecap:butt;stroke-linejoin:miter;stroke-miterlimit:10;stroke-dasharray:none;stroke-opacity:1"
       id="path88" />
    <path
       d="M 188.19663,30.556552 H 81.461502 V 9.163403 H 188.19663 Z"
       style="fill:#ffffff;fill-opacity:1;fill-rule:nonzero;stroke:none;stroke-width:0.352778"
       id="path90"
       sodipodi:nodetypes="ccccc" />
    <path
       d="M 188.19663,30.556552 H 81.461502 V 9.163403 H 188.19663 Z"
       style="fill:none;stroke:#231f20;stroke-width:0.440972;stroke-linecap:butt;stroke-linejoin:miter;stroke-miterlimit:10;stroke-dasharray:none;stroke-opacity:1"
       id="path92"
       sodipodi:nodetypes="ccccc" />
    <path
       d="m 80.721375,6.93808 -3.53e-4,25.843794 c 0.369711,-0.887589 0.740128,-1.257652 0.740128,-1.257652 L 81.461502,8.19538 c 0,0 -0.370416,-0.369005 -0.740127,-1.2573"
       style="fill:#ffffff;fill-opacity:1;fill-rule:nonzero;stroke:none;stroke-width:0.352778"
       id="path94" />
    <path
       d="m 80.721375,6.93808 -3.53e-4,25.843794 c 0.369711,-0.887589 0.740128,-1.257652 0.740128,-1.257652 L 81.461502,8.19538 c 0,0 -0.370416,-0.369005 -0.740127,-1.2573 z"
       style="fill:none;stroke:#231f20;stroke-width:0.440972;stroke-linecap:butt;stroke-linejoin:miter;stroke-miterlimit:10;stroke-dasharray:none;stroke-opacity:1"
       id="path96" />
    <path
       d="m 81.250541,11.898136 c 0,0 0.291747,-3.645253 2.295878,-3.645253 h 6.012039 c 0,0 1.958269,0.862542 5.602111,0.862542 M 81.250188,27.725863 c 0,0 0.291748,3.645253 2.295878,3.645253 h 6.012039 c 0,0 1.958269,-0.862542 5.602464,-0.862542"
       style="fill:none;stroke:#231f20;stroke-width:0.440972;stroke-linecap:butt;stroke-linejoin:miter;stroke-miterlimit:10;stroke-dasharray:none;stroke-opacity:1"
       id="path98" />
    <path
       d="m 188.93651,6.93808 3.6e-4,25.843794 c -0.36971,-0.887589 -0.74013,-1.257652 -0.74013,-1.257652 L 188.19639,8.19538 c 0,0 0.37041,-0.369005 0.74012,-1.2573"
       style="fill:#ffffff;fill-opacity:1;fill-rule:nonzero;stroke:none;stroke-width:0.352778"
       id="path100"
       sodipodi:nodetypes="ccccc" />
    <path
       d="m 188.93651,6.93808 3.6e-4,25.843794 c -0.36971,-0.887589 -0.74013,-1.257652 -0.74013,-1.257652 L 188.19639,8.19538 c 0,0 0.37041,-0.369005 0.74012,-1.2573 z"
       style="fill:none;stroke:#231f20;stroke-width:0.440972;stroke-linecap:butt;stroke-linejoin:miter;stroke-miterlimit:10;stroke-dasharray:none;stroke-opacity:1"
       id="path102"
       sodipodi:nodetypes="ccccc" />
    <path
       d="m 188.19682,11.946114 c 0,0 -0.37641,-3.645253 -2.96369,-3.645253 h -7.76111 c 0,0 -2.528,0.862542 -7.23194,0.862542 m 17.95709,18.610438 c 0,0 -0.37641,3.645253 -2.96368,3.645253 h -7.76111 c 0,0 -2.52801,-0.862542 -7.23195,-0.862542"
       style="fill:none;stroke:#231f20;stroke-width:0.440972;stroke-linecap:butt;stroke-linejoin:miter;stroke-miterlimit:10;stroke-dasharray:none;stroke-opacity:1"
       id="path104"
       sodipodi:nodetypes="cscccscc" />
    <path
       d="m 180.47057,9.163755 c -1.83515,0.31997 -4.04459,0.678392 -6.06989,0.678392 H 95.256524 c -2.025297,0 -4.234744,-0.358422 -6.069894,-0.678392 m 0,21.392797 c 1.83515,-0.320322 4.044597,-0.678392 6.069894,-0.678392 h 79.144156 c 2.0253,0 4.23474,0.35807 6.06989,0.678392"
       style="fill:none;stroke:#231f20;stroke-width:0.264583;stroke-linecap:butt;stroke-linejoin:miter;stroke-miterlimit:10;stroke-dasharray:none;stroke-opacity:1"
       id="path106"
       sodipodi:nodetypes="cssccssc" />
    <path
       d="m 24.694267,7.344833 c 1.19627,0.483306 1.513417,1.643945 1.513417,1.643945 C 25.20262,8.960558 24.906287,8.184444 24.694267,7.344833"
       style="fill:#ffffff;fill-opacity:1;fill-rule:nonzero;stroke:none;stroke-width:0.352778"
       id="path108" />
    <path
       d="m 79.835902,28.236333 c -0.225777,-1.223434 -1.089025,-3.218745 -2.761191,-4.270728 -1.381831,-0.86748 -2.589036,-0.679803 -2.594681,-1.110897 -0.01023,-0.548217 1.538817,-0.378531 1.538817,-0.378531 -1.670403,-0.956733 -4.066469,0.214136 -4.409017,-0.333727 -0.202141,-0.328437 1.115131,-0.789517 1.115131,-0.789517 -2.037645,-0.07479 -4.442178,0.97543 -5.406672,1.928283 2.430639,-0.815975 5.853641,-0.34678 7.425972,0.996597 -0.665692,-0.373944 -1.387475,-0.623711 -2.128308,-0.771877 -2.75837,-0.554567 -5.828948,0.266347 -7.677503,1.035402 -2.086328,0.706614 -3.677708,1.750131 -3.677708,1.750131 -1.377245,0.800453 -3.920772,1.546578 -5.645503,0.81668 l -3.53e-4,0.0035 c 0,0 2.700161,4.497564 6.018036,2.932995 0.24377,-0.135467 0.476956,-0.275167 0.696031,-0.412045 1.811161,-0.982486 3.635022,-2.621491 3.635022,-2.621491 0.634294,-0.443442 2.587272,-1.715206 4.938536,-2.4257 0.523875,-0.156281 1.055511,-0.188737 1.560689,-0.116064 1.311275,0.178152 2.454275,1.018822 2.829277,2.023886 1.012473,-0.176389 3.578931,0.671689 4.543425,1.743075"
       style="fill:#231f20;fill-opacity:1;fill-rule:nonzero;stroke:none;stroke-width:0.352778"
       id="path110" />
    <path
       d="m 26.208037,8.988778 c 0,0 -0.317147,-1.160639 -1.513417,-1.643945 0.21202,0.839611 0.508,1.615722 1.513417,1.643945 m -3.852333,3.104444 C 22.077009,10.590389 20.002676,10.332861 18.934112,11.024305 19.304529,10.029472 20.345223,9.126361 21.149204,8.840611 20.690593,8.664222 20.150843,8.512528 19.569112,8.385528 20.253148,7.863417 21.936251,7.468305 22.789973,7.542389 22.634398,7.496529 22.465417,7.461249 22.28162,7.436555 L 22.443898,6.459361 C 22.348998,5.640917 21.607815,4.702528 20.72587,4.138083 20.288779,2.885722 20.71564,0.606778 21.31889,0 c -0.303742,3.277306 4.324702,5.30225 5.224286,7.718778 -0.507647,-2.06375 -2.649361,-3.425473 -3.650897,-4.681361 -0.317853,-0.8255 -0.01094,-2.19075 0.373591,-2.652889 -0.176389,2.197805 2.144889,3.989916 3.376084,5.259916 1.453797,1.49225 1.837972,2.786945 1.601963,3.827639 0.324203,0.09878 0.765175,0.430389 0.673806,0.966611 0.479425,-0.09525 0.98425,-0.627944 1.110897,-0.963083 0.186972,1.643944 -0.829028,3.340805 -1.918758,3.824111 0,0 0.313619,-0.769056 -0.162278,-1.382889 -0.466019,-0.60325 -1.837972,-0.652639 -2.303992,-0.635 0,0 0.596548,-0.8255 0.381,-1.259417 -0.261055,-0.53975 -2.955925,-0.388055 -4.173361,0.01058 0.41275,-0.03175 1.379714,0.105833 1.710973,0.257528 -0.197556,0.275166 -0.726723,1.442861 -0.380648,1.80975 0.292453,0.313972 0.705556,-0.151695 0.75812,-0.211667 -0.03881,0.112889 -0.444147,1.291167 -0.165453,1.5875 0.289278,0.310444 0.941917,0.116417 0.941917,0.116417 -0.43427,1.001888 -2.017889,1.654527 -3.111853,1.619249 0.395111,-0.109361 1.061861,-0.783166 1.171575,-1.199444 -0.293158,0.134056 -1.041047,0.194028 -1.326444,0.130528 0.356305,-0.134056 1.093258,-1.019528 0.906286,-2.049639"
       style="fill:#231f20;fill-opacity:1;fill-rule:nonzero;stroke:none;stroke-width:0.352778"
       id="path112" />
    <path
       d="m 16.584259,5.933722 c 0.179917,-0.635 -1.054805,-1.767416 -1.520825,-1.986139 1.743075,-0.01764 2.600325,0.335139 2.600325,0.335139 -0.433916,-0.680861 -0.550333,-1.710972 -0.264583,-2.515305 0.878417,2.303639 4.261555,2.776361 5.044369,4.691944 l -0.162278,0.977194 c -1.337027,-0.172861 -3.308702,0.225778 -4.303536,1.329973 0.345723,0.01058 1.23825,0.204611 1.58362,0.328083 -1.506008,0.225778 -3.580342,1.552222 -4.201583,2.19075 0.183797,-0.860778 0.44838,-1.583972 0.261408,-2.109611 -0.264583,-0.740833 -1.146528,-1.0795 -2.928056,-0.765528 1.231195,-1.160639 3.704167,-1.827389 3.891139,-2.4765"
       style="fill:#231f20;fill-opacity:1;fill-rule:nonzero;stroke:none;stroke-width:0.352778"
       id="path114" />
    <path
       d="m 6.6958975,11.7602 0.359481,0.783166 c -0.482953,0.08114 -1.026231,1.989667 -1.026231,1.989667 -1.231194,-0.712611 -0.194027,-2.991555 -0.194027,-2.991555 z"
       style="fill:#231f20;fill-opacity:1;fill-rule:nonzero;stroke:none;stroke-width:0.352778"
       id="path116" />
    <path
       d="m 4.0077315,11.435644 c 0,0 0.642055,-0.462139 0.980722,-0.546805 l 0.560917,0.497416 -0.289278,0.08819 c 0,0 -0.539397,1.763889 -0.321028,2.494139 l 0.352778,1.023055 c 0,0 -1.150056,-0.229305 -1.326445,-0.670278 0,0 -0.370416,-1.986138 0.04233,-2.885722"
       style="fill:#231f20;fill-opacity:1;fill-rule:nonzero;stroke:none;stroke-width:0.352778"
       id="path118" />
    <path
       d="m 3.3586205,12.183533 c 0,0 0.07408,2.264833 0.306916,2.465917 l 0.853723,0.363361 0.02469,0.772583 c 0,0 -1.524,-0.483305 -1.651,-1.065389 -0.127,-0.582083 -0.225778,-2.028472 -0.225778,-2.028472 0,0 0.254,-0.377472 0.691445,-0.508"
       style="fill:#231f20;fill-opacity:1;fill-rule:nonzero;stroke:none;stroke-width:0.352778"
       id="path120" />
    <path
       d="M 84.765619,16.926983 H 185.922"
       style="fill:none;stroke:#b2b1b1;stroke-width:0.0881944;stroke-linecap:butt;stroke-linejoin:miter;stroke-miterlimit:4;stroke-dasharray:none;stroke-opacity:1"
       id="path370"
       sodipodi:nodetypes="cc" />
    <path
       d="M 84.765619,26.127427 H 185.922"
       style="fill:none;stroke:#b2b1b1;stroke-width:0.0881944;stroke-linecap:butt;stroke-linejoin:miter;stroke-miterlimit:4;stroke-dasharray:none;stroke-opacity:1"
       id="path372"
       sodipodi:nodetypes="cc" />
    <path
       d="m 78.892927,6.439253 c 0.136173,0 0.136173,0.200025 0,0.200025 H 78.707366 V 6.439253 Z m 0.133703,0.351366 c 0.318206,-0.07197 0.252942,-0.558447 -0.133703,-0.558447 h -0.416983 v 0.875242 h 0.231422 V 6.835422 h 0.08114 l 0.208139,0.271992 h 0.248356 v -0.05045 z m -0.20708,0.563034 c 0.412397,0 0.644525,-0.301273 0.644525,-0.683684 0,-0.380647 -0.232128,-0.681919 -0.644525,-0.681919 -0.409928,0 -0.642056,0.301272 -0.644173,0.681919 0.0021,0.382411 0.234245,0.683684 0.644173,0.683684 m 0.851605,-0.683684 c 0,0.466373 -0.306211,0.85972 -0.851253,0.85972 -0.543277,0 -0.849489,-0.393347 -0.849489,-0.85972 0,-0.465314 0.306212,-0.857602 0.849489,-0.857602 0.545042,0 0.851253,0.392288 0.851253,0.857602"
       style="fill:#231f20;fill-opacity:1;fill-rule:nonzero;stroke:none;stroke-width:0.352778"
       id="path1066" />
    <path
       d="m 53.286552,6.008158 c -0.01164,-0.09102 -0.0053,-0.184503 0.02152,-0.268464 l 0.118534,-0.369358 0.148872,0.357717 c 0.04339,0.104069 0.134761,0.179916 0.243064,0.249061 -0.0095,-0.171803 0.02117,-0.362656 0.08255,-0.493889 -0.0127,-0.276931 0.178858,-0.484011 0.407458,-0.484011 0.391231,0 0.496006,0.473428 0.314325,0.812447 0.08431,0.127 0.212725,0.244828 0.32632,0.347133 0.04057,0.03669 0.07902,0.07126 0.112888,0.103717 0.01058,0.01094 0.01623,0.02046 0.02681,0.03104 0.170039,-0.230363 0.29457,-0.551391 0.29457,-0.794102 0,-0.503061 -0.327025,-0.969786 -1.007181,-1.006475 -0.431447,-0.02293 -0.722841,0.110066 -0.9398,0.331258 -0.09807,0.100542 -0.316441,0.353836 -0.274814,0.812447 0.01587,0.172861 0.07373,0.293511 0.124884,0.371475 m 1.823508,2.326922 c -0.155575,0.263525 -0.481542,0.603956 -0.813153,0.603956 -0.611364,0 -0.917927,-0.8636 -0.236361,-1.571978 -0.03845,-0.01235 -0.07585,-0.01411 -0.0889,-0.01411 -0.0575,0 -0.113947,0.01517 -0.150989,0.04057 l -0.301625,0.258938 0.08502,-0.421569 c 0.0053,-0.01446 0.01058,-0.02857 0.01658,-0.04269 -0.151341,0.0769 -0.298097,0.183092 -0.354541,0.244475 l -0.27305,0.297392 0.02752,-0.419453 0.0187,-0.09243 c 0.01411,-0.06526 0.03104,-0.146756 0.02081,-0.173214 -0.0035,-0.0081 -0.0099,-0.01446 -0.01764,-0.02011 -0.126648,0.09772 -0.470959,0.401814 -0.511528,0.853722 0,0 0.06703,-0.0949 0.125589,-0.117122 0.03845,-0.01482 0.07197,0.0042 0.03528,0.117122 -0.01411,0.0441 -0.34925,0.950383 0.309386,1.577622 0,0 -0.07232,-0.183797 -0.02858,-0.240241 0.02117,-0.02681 0.04868,-0.02928 0.08749,0.0194 0.02787,0.03775 0.05715,0.07373 0.08925,0.109009 v 7.05e-4 l 3.53e-4,-3.53e-4 c 0.05433,0.06209 0.1143,0.12065 0.179563,0.171098 0.19685,0.137583 0.464609,0.248708 0.769056,0.248708 0.811036,0 1.241073,-0.555625 1.480962,-1.025878 -0.01094,-0.0134 -0.01905,-0.02716 -0.03387,-0.04022 C 55.422615,8.590475 55.244815,8.443013 55.110054,8.335063 M 56.95226,6.728161 c -0.606072,0.02928 -1.125361,0.542925 -1.394178,0.906286 0.04798,0.01623 0.09631,0.03845 0.144286,0.07655 0.05609,0.04516 0.138289,0.112183 0.226836,0.185561 0.07197,-0.15875 0.233892,-0.479778 0.482247,-0.76447 0.226837,-0.259644 0.621948,-0.284691 0.829028,-0.126294 0.13335,-0.121003 0.593372,-0.234245 0.835731,-0.165453 -0.147109,-0.160514 -0.461081,-0.375708 -0.807509,-0.375708 -0.28575,0 -0.447322,0.140405 -0.488597,0.07726 -0.05256,-0.08043 0.193322,-0.200025 0.193322,-0.200025 -0.337608,0.01411 -0.582788,0.410633 -0.685094,0.36195 -0.06103,-0.02963 0.09102,-0.221544 0.09102,-0.221544 -0.308681,0.179211 -0.567267,0.559152 -0.620889,0.790222 0.283986,-0.347486 0.835378,-0.5969 1.1938,-0.544336 M 69.42331,8.386921 C 69.40214,8.353761 69.38909,8.324831 69.38909,8.209474 V 7.450649 c 0,-0.114653 0.01023,-0.136173 0.0321,-0.170392 0.02364,-0.03775 0.06491,-0.09349 0.06526,-0.09384 l 0.01411,-0.0187 -0.02081,-0.01094 c -0.0025,-0.0014 -0.05503,-0.02893 -0.113594,-0.03493 v 0.0011 c -0.01552,-0.0011 -1.197681,-0.0011 -1.197681,-0.0011 l 0.06032,0.03704 c 0,0 0.176389,0.107245 0.255411,0.156986 0.07691,0.04833 0.116417,0.103364 0.116417,0.270934 V 7.99991 c -0.08925,0.02822 -0.180622,0.04128 -0.289631,0.04128 -0.4826,0 -0.727075,-0.261056 -0.727075,-0.774348 0,-0.489655 0.267759,-0.770114 0.734836,-0.770114 0.292806,0 0.600781,0.06667 0.975431,0.34925 l -0.0018,-0.02011 -0.08608,-0.813858 -0.0067,-0.05997 -0.05821,-0.01376 -0.05715,-0.0134 C 68.833772,5.86702 68.736053,5.85185 68.587533,5.8328 68.499693,5.82222 68.451714,5.81692 68.341294,5.81692 c 0,0 -0.03104,-3.53e-4 -0.04727,-3.53e-4 -0.88018,0 -1.519767,0.61595 -1.519767,1.464733 0,0.835378 0.642762,1.442156 1.527881,1.442156 0.154869,0 0.452967,-0.02858 0.640644,-0.06773 0.03563,-0.0074 0.05609,-0.01305 0.08396,-0.01975 0.006,-0.0014 0.01199,-0.0025 0.01835,-0.0039 0.105833,-0.0254 0.21343,-0.05256 0.322439,-0.08573 l 0.137583,-0.04269 -0.01623,-0.02258 c -7.05e-4,-7.05e-4 -0.04163,-0.05609 -0.06562,-0.09419 m 6.467475,-2.528711 h -1.594158 l 0.05997,0.03634 c 0.0014,0.0011 0.153811,0.0949 0.24765,0.15628 0.08502,0.0568 0.117122,0.09525 0.117122,0.277636 V 7.009645 L 73.544457,5.857826 v 3.53e-4 h -0.93592 l 0.05574,0.03598 c 0.0014,0.0011 0.144639,0.09454 0.227189,0.154517 0.08149,0.05962 0.120297,0.119944 0.120297,0.302683 v 1.853847 c 0,0.181681 -0.03281,0.220134 -0.1143,0.270581 -0.0896,0.05503 -0.264583,0.15628 -0.2667,0.156986 l -0.0635,0.03704 h 1.598083 l -0.06385,-0.03704 C 74.099696,8.631673 73.922285,8.529762 73.83656,8.475787 73.75648,8.425337 73.721554,8.384067 73.721554,8.205206 V 7.086901 l 1.709208,1.673577 v -2.43205 c 0,-0.181327 0.03034,-0.218369 0.117123,-0.277636 0.09454,-0.06421 0.268463,-0.154516 0.27058,-0.155575 z M 65.640428,7.510233 65.38678,6.818789 65.111261,7.510233 Z M 63.025331,6.660092 c 0,-0.143934 -0.09384,-0.240242 -0.364772,-0.2413 l -0.09419,7.05e-4 v 0.655461 c 0.03951,7.06e-4 0.07902,7.06e-4 0.09313,7.06e-4 0.178506,0 0.365831,-0.03951 0.365831,-0.415572 m 3.912658,1.823155 0.237773,0.18662 h -1.47073 c 0,0 0.124883,-0.119592 0.180975,-0.178506 0.04868,-0.05115 0.07373,-0.101953 0.03739,-0.188736 -0.0081,-0.02117 -0.02505,-0.06703 -0.04551,-0.125236 h -1.019175 c -0.02046,0.05609 -0.03704,0.101247 -0.04763,0.125236 -0.04128,0.100894 -0.0321,0.129469 0.0254,0.183797 0.06244,0.06033 0.2159,0.183092 0.2159,0.183092 l -1.542697,3.53e-4 -0.707672,-0.853723 -0.0021,-0.0021 -0.0011,-0.0018 c -0.07691,-0.105481 -0.135114,-0.165453 -0.188736,-0.193675 -0.0071,-0.0039 -0.02011,-0.0085 -0.04375,-0.01376 v 0.600075 c 0,0.176389 0.03351,0.208492 0.11677,0.271992 0.08537,0.06526 0.334433,0.19297 0.334433,0.19297 h -1.64465 c 0,0 0.251531,-0.140759 0.329494,-0.193675 0.07267,-0.04904 0.116064,-0.09207 0.116064,-0.271287 V 6.331987 c 0,-0.173566 -0.03775,-0.227541 -0.117122,-0.27693 -0.0822,-0.05115 -0.248355,-0.155928 -0.248355,-0.155928 l -0.05821,-0.03704 c 0,0 1.264356,-3.53e-4 1.338792,-3.53e-4 0.257175,0.0039 0.359833,0.01164 0.502708,0.05503 0.344311,0.09913 0.557742,0.385586 0.557742,0.747183 0,0.168275 -0.04763,0.324556 -0.136878,0.451556 -0.06668,0.09913 -0.156281,0.181327 -0.258586,0.23883 0.294217,0.393347 0.526697,0.686153 0.669925,0.843492 0.0095,-0.01658 0.851605,-2.050345 0.851605,-2.050345 0.0028,-0.01446 0.0046,-0.02752 0.0046,-0.03845 0,-0.01446 0,-0.0314 -0.04233,-0.06985 L 64.683367,5.857854 h 1.108427 c 0,0 0.922867,2.34068 0.92957,2.354792 h -7.06e-4 c 0.02575,0.05821 0.03316,0.06985 0.05962,0.110066 0.03951,0.05856 0.05327,0.07867 0.157691,0.160514 m 4.962525,-1.222022 c 0,-0.460375 -0.291747,-0.757767 -0.743655,-0.757767 -0.433564,0 -0.703086,0.297392 -0.703086,0.776464 0,0.462845 0.285397,0.762 0.725663,0.762 0.424039,0 0.721078,-0.32138 0.721078,-0.780697 m 0.809272,0 c 0,0.830086 -0.661105,1.456267 -1.537758,1.456267 -0.88265,0 -1.522942,-0.604662 -1.522942,-1.43757 0,-0.845961 0.636764,-1.4605 1.515181,-1.4605 0.881239,0 1.545519,0.619831 1.545519,1.441803 m 4.343048,-0.393347 c -0.0381,-0.0095 -0.07655,-0.0187 -0.113948,-0.02787 l -0.01023,-0.0021 C 76.660877,6.774737 76.4859,6.724645 76.4859,6.609992 c 0,-0.0388 0.01129,-0.06914 0.03422,-0.09172 0.04727,-0.04727 0.144992,-0.07373 0.276225,-0.07373 0.02187,0 0.0448,0.0011 0.06703,0.0028 h 0.0088 c 0.0046,7.05e-4 0.0088,0.0014 0.01341,0.0018 0.242005,0.02117 0.53093,0.126295 0.826911,0.323145 l -0.04657,-0.830086 -0.05433,-0.01834 -0.0099,-0.0035 c -0.0042,-0.0014 -0.03563,-0.01199 -0.127353,-0.0321 -0.05574,-0.01235 -0.341842,-0.07408 -0.512939,-0.08643 -0.05574,-0.0042 -0.110772,-0.006 -0.16263,-0.006 -0.626534,0 -0.992717,0.297039 -1.032228,0.836789 -0.01976,0.269875 0.113241,0.5334 0.337255,0.670278 0.200378,0.121708 0.499886,0.21343 0.718256,0.280811 l 0.05009,0.01517 c 0.136878,0.04198 0.294217,0.126647 0.272698,0.290336 -0.01164,0.08537 -0.0448,0.177095 -0.301978,0.177095 -0.03704,0 -0.07761,-0.0018 -0.122767,-0.006 -0.177094,-0.01552 -0.384175,-0.11677 -0.613833,-0.299862 -0.0092,-0.0078 -0.01658,-0.01376 -0.02187,-0.01693 L 75.94258,7.635921 75.796177,7.525149 l 0.05821,1.052689 0.05433,0.01799 0.01058,0.0039 c 0.0021,3.53e-4 0.03245,0.01023 0.127705,0.0314 0.09455,0.02117 0.405342,0.07514 0.563739,0.08643 0.0508,0.0039 0.103011,0.006 0.155222,0.006 0.684036,0 1.135239,-0.340431 1.148645,-0.867481 0.01305,-0.507294 -0.277284,-0.839964 -0.861836,-0.98813 M 60.728686,7.264822 c 0,-0.460728 -0.237772,-0.725311 -0.651934,-0.725311 h -0.316088 v 1.447094 h 0.316088 c 0.414162,0 0.651934,-0.263525 0.651934,-0.721783 m 0.817739,-0.0074 c 0,0.327025 -0.106892,0.648759 -0.293511,0.881239 -0.0822,0.103364 -0.183445,0.196145 -0.301978,0.275872 -0.279047,0.186267 -0.536222,0.255412 -0.948267,0.255412 h -1.470025 l 0.06244,-0.03634 c 3.53e-4,-7.05e-4 0.182033,-0.106891 0.266347,-0.158044 0.08149,-0.04904 0.115358,-0.09701 0.115358,-0.270933 V 6.58185 c 0,-0.178153 -0.04939,-0.227895 -0.119239,-0.277989 C 58.494895,6.039278 58.464556,5.735536 58.463498,5.722836 l -0.0035,-0.04057 0.03387,0.02258 c 0.0011,7.06e-4 0.122061,0.07832 0.255411,0.109009 0.154869,0.03563 0.367594,0.04163 0.814564,0.04163 h 0.565502 v 0.0025 c 0.28187,0.01129 0.488598,0.06279 0.691445,0.16898 0.454378,0.238125 0.725664,0.697795 0.725664,1.230489 M 40.60874,8.506288 c -3.53e-4,-7.06e-4 -0.04163,-0.0568 -0.06562,-0.09454 -0.02117,-0.03316 -0.03387,-0.06138 -0.03387,-0.177094 l -3.53e-4,-0.758825 c 0,-0.114653 0.01058,-0.136172 0.0321,-0.170392 0.02399,-0.03775 0.06491,-0.09384 0.06526,-0.09419 l 0.01376,-0.01834 -0.02046,-0.01094 c -0.0021,-0.0014 -0.05468,-0.02893 -0.113242,-0.03492 v 7.05e-4 c -0.01552,-7.05e-4 -1.19768,-7.05e-4 -1.19768,-7.05e-4 l 0.06032,0.03669 c 0,0 0.176036,0.10795 0.255058,0.156633 0.07726,0.04868 0.11677,0.104422 0.11677,0.271286 v 0.413103 c -0.08925,0.02822 -0.180975,0.04092 -0.290337,0.04092 -0.481894,0 -0.726722,-0.259997 -0.726722,-0.773994 0,-0.489303 0.268111,-0.770467 0.735189,-0.770467 0.292453,0 0.600075,0.06773 0.975078,0.349956 l -0.0018,-0.02011 -0.08608,-0.813858 -0.006,-0.06032 -0.05891,-0.01376 -0.0568,-0.01305 c -0.250472,-0.05786 -0.348192,-0.07338 -0.497417,-0.09208 -0.08749,-0.01058 -0.135114,-0.01623 -0.245533,-0.01623 0,0 -0.0314,-3.53e-4 -0.04727,-3.53e-4 -0.880533,0 -1.519767,0.616303 -1.519767,1.464734 0,0.835377 0.642409,1.442155 1.527881,1.442155 0.154516,0 0.452966,-0.02857 0.640644,-0.06738 0.03563,-0.0078 0.05574,-0.01305 0.08396,-0.01905 0.0056,-0.0018 0.01199,-0.0032 0.01834,-0.0046 0.106186,-0.02505 0.213431,-0.05221 0.322439,-0.08573 l 0.137583,-0.04269 z m 8.884708,-2.64795 h -1.593812 l 0.05962,0.03634 c 0.0018,0.0014 0.154164,0.0949 0.247297,0.156633 0.08537,0.05644 0.117475,0.0949 0.117475,0.277283 V 7.010161 L 47.147515,5.858228 h -0.936272 l 0.05609,0.03634 c 0.0014,7.05e-4 0.144638,0.09419 0.227188,0.154164 0.08184,0.05962 0.120298,0.119944 0.120298,0.302683 v 1.853847 c 0,0.181681 -0.03281,0.220134 -0.114653,0.270581 -0.08996,0.05503 -0.264231,0.15628 -0.265995,0.156986 l -0.06456,0.03704 h 1.599142 l -0.06456,-0.03704 C 47.702393,8.632119 47.525334,8.529814 47.439609,8.475839 47.359179,8.425389 47.32425,8.384119 47.32425,8.205258 V 7.086953 l 1.709209,1.67393 V 6.32848 c 0,-0.180975 0.02999,-0.218369 0.117122,-0.277636 0.09454,-0.06421 0.268464,-0.154516 0.27058,-0.155575 z m -2.345972,-3.53e-4 v 3.53e-4 z m -9.054042,3.53e-4 h -1.59385 l 0.05997,0.03634 c 0.0014,0.0014 0.154164,0.0949 0.247297,0.156633 0.08537,0.05644 0.117475,0.0949 0.117475,0.277283 v 0.681567 l -1.176866,-1.152172 3.53e-4,3.53e-4 -1.850319,-3.53e-4 c -0.05503,0 -0.113242,0.03387 -0.116064,0.03528 l -0.0187,0.01094 0.01305,0.01799 c 3.52e-4,3.53e-4 0.04128,0.05609 0.06491,0.09384 0.01834,0.02858 0.02822,0.04833 0.0314,0.123473 0,0 -3.53e-4,1.430513 -3.53e-4,1.433336 v 0.0018 0.0014 l 7.06e-4,0.01094 c -0.0046,0.30233 -0.138995,0.455789 -0.423334,0.455789 -0.288925,0 -0.43568,-0.15875 -0.43568,-0.4699 l -7.06e-4,-1.433336 c 0.0025,-0.07514 0.01305,-0.0949 0.03105,-0.123473 0.02399,-0.03775 0.06491,-0.09349 0.06562,-0.09384 l 0.01305,-0.01799 -0.01905,-0.01094 c -0.0028,-0.0014 -0.06138,-0.03528 -0.116417,-0.03528 l -1.183216,3.53e-4 0.06033,0.03634 c 0.0014,0.0011 0.153811,0.09419 0.248355,0.156633 0.08502,0.05609 0.117123,0.09454 0.117123,0.277283 v 1.160287 c 0,0.255411 0.03069,0.46108 0.08819,0.594077 0.04163,0.0949 0.106539,0.185914 0.199319,0.278695 0.241653,0.238125 0.5461,0.353483 0.930981,0.353483 0.534458,0 0.953206,-0.241653 1.120422,-0.644878 0.06491,-0.156633 0.08643,-0.297391 0.08643,-0.5588 V 6.328627 c 0,-0.182738 0.03245,-0.221191 0.117475,-0.277283 0.0508,-0.03351 0.117828,-0.07549 0.169333,-0.107597 0.04763,0.03175 0.109008,0.07302 0.152753,0.105128 0.08184,0.05962 0.120649,0.119944 0.120649,0.302683 v 1.853847 c 0,0.181681 -0.03281,0.220134 -0.115005,0.270581 -0.08961,0.05503 -0.264583,0.15628 -0.265641,0.156986 l -0.06421,0.03704 h 1.598788 l -0.06456,-0.03704 C 36.302692,8.632266 36.125281,8.529961 36.039556,8.475986 35.959826,8.425536 35.924551,8.384266 35.924551,8.205405 V 7.0871 l 1.708855,1.67393 V 6.328627 c 0,-0.181327 0.03069,-0.218369 0.117475,-0.277636 0.09454,-0.06421 0.268464,-0.154516 0.270581,-0.155575 z m 4.377972,2.128661 H 41.833584 V 7.575307 c 0,0 0.581025,-3.53e-4 0.597253,-3.53e-4 0.07796,-0.0011 0.16263,-0.0028 0.210961,0.02117 0.05609,0.02681 0.09525,0.08467 0.09596,0.08502 l 0.02822,0.04269 -0.0011,-0.900995 -0.02364,0.01411 c -7.05e-4,3.53e-4 -0.03845,0.02364 -0.07091,0.03775 -0.02858,0.01164 -0.04798,0.01729 -0.176036,0.01729 H 41.833539 V 6.540975 h 0.661811 c 0.170039,0 0.207081,0.01517 0.304095,0.08361 l 0.163689,0.125236 -0.08643,-0.891469 h -2.251075 l 0.05997,0.03634 c 0.0014,0.0014 0.154163,0.0949 0.246944,0.156633 0.08502,0.0568 0.117475,0.0956 0.117475,0.277283 v 1.876425 c 0,0.184503 -0.02822,0.217312 -0.114653,0.270934 -0.08608,0.05327 -0.263525,0.15628 -0.264936,0.156986 l -0.06421,0.03704 h 2.333978 l 0.208844,-0.938742 c 0,0 -0.18803,0.135819 -0.241653,0.16898 -0.104069,0.06385 -0.185208,0.08678 -0.436033,0.08678 M 50.655447,6.868 c -0.03775,-0.0095 -0.0762,-0.0187 -0.113948,-0.02787 l -0.01058,-0.0021 c -0.267012,-0.06329 -0.44199,-0.11338 -0.44199,-0.228033 0,-0.0388 0.01058,-0.06914 0.03422,-0.09137 0.04692,-0.04762 0.145344,-0.07408 0.276225,-0.07408 0.02187,0 0.04445,0.0011 0.06703,0.0028 0.0028,0 0.0056,0 0.0081,3.52e-4 0.0049,3.53e-4 0.0095,0.0011 0.01376,0.0014 0.242005,0.02117 0.530577,0.126295 0.826558,0.323145 l -0.04586,-0.830086 -0.05433,-0.01834 -0.01023,-0.0032 c -0.0042,-0.0018 -0.03563,-0.01235 -0.128058,-0.03245 -0.05539,-0.01235 -0.341136,-0.07408 -0.512586,-0.08608 -0.05539,-0.0042 -0.11042,-0.0063 -0.162278,-0.0063 -0.626181,0 -0.99307,0.297039 -1.032228,0.836789 -0.01976,0.269875 0.112889,0.5334 0.337961,0.670278 0.200378,0.121708 0.499181,0.213783 0.717903,0.280811 l 0.05009,0.01517 c 0.136172,0.04198 0.293864,0.126647 0.272344,0.290336 -0.01094,0.08537 -0.0448,0.177095 -0.301625,0.177095 -0.03704,0 -0.07796,-0.0018 -0.122766,-0.006 -0.1778,-0.01552 -0.384881,-0.11677 -0.614186,-0.299862 -0.0092,-0.0074 -0.01658,-0.01376 -0.02187,-0.01693 l -0.14217,-0.107597 -0.14605,-0.110772 0.05821,1.052689 0.05539,0.01799 0.0095,0.0039 c 0.0021,3.53e-4 0.0321,0.01023 0.127706,0.03175 0.09454,0.02081 0.405342,0.07479 0.563386,0.08608 0.05115,0.0039 0.103717,0.006 0.155222,0.006 0.684742,0 1.135592,-0.340431 1.148997,-0.867481 0.0127,-0.507294 -0.277283,-0.839964 -0.861836,-0.98813 M 31.13986,7.264779 c 0,-0.460728 -0.237419,-0.725311 -0.65158,-0.725311 h -0.316089 v 1.447094 h 0.316089 c 0.414161,0 0.65158,-0.263525 0.65158,-0.721783 m 0.817386,-0.0074 c 0,0.327025 -0.106891,0.648759 -0.293158,0.881239 -0.0822,0.103364 -0.183445,0.196145 -0.301978,0.275872 -0.279047,0.186267 -0.535869,0.255412 -0.948267,0.255412 h -1.470377 l 0.06279,-0.03634 c 0,-7.05e-4 0.182033,-0.106891 0.2667,-0.158044 0.08149,-0.04904 0.115006,-0.09701 0.115006,-0.270933 V 6.581807 c 0,-0.178153 -0.04904,-0.227895 -0.118886,-0.277989 C 28.90642,6.039235 28.875376,5.735493 28.87467,5.722793 l -0.0035,-0.04057 0.03387,0.02258 c 0.0014,7.06e-4 0.122061,0.07832 0.255411,0.109009 0.155222,0.03563 0.367594,0.04163 0.814917,0.04163 h 0.56515 v 0.0025 c 0.281869,0.01129 0.488597,0.06279 0.691444,0.16898 0.454025,0.238125 0.725311,0.697795 0.725311,1.230489 m 13.545961,0.0014 c 0,-0.460375 -0.291747,-0.758119 -0.743303,-0.758119 -0.433211,0 -0.70238,0.297744 -0.70238,0.777169 0,0.462492 0.284338,0.761648 0.724605,0.761648 0.424392,0 0.721078,-0.321028 0.721078,-0.780698 m 0.809625,0 c 0,0.830439 -0.661458,1.45662 -1.538111,1.45662 -0.88265,0 -1.522942,-0.604661 -1.522942,-1.43757 0,-0.846313 0.637117,-1.460147 1.515181,-1.460147 0.881239,0 1.545872,0.619478 1.545872,1.441097 m 8.686094,-0.282222 -0.02646,-0.08608 c -0.0028,-0.0092 -0.0695,-0.219427 -0.294217,-0.301977 l -0.122766,-0.04551 0.03563,0.125942 c 0.03069,0.10795 0.08749,0.307622 0.317853,0.307622 z m -1.666539,-0.5137 c 0.02646,-0.10407 -0.179564,-0.281517 -0.256117,-0.314678 0.282575,-0.01129 0.423333,0.04163 0.423333,0.04163 -0.07373,-0.108656 -0.09772,-0.275167 -0.05574,-0.406753 0.154164,0.369358 0.70485,0.428625 0.841375,0.735542 -0.0194,-0.132645 -0.144286,-0.280811 -0.289278,-0.367595 -0.07796,-0.201436 -0.01975,-0.572558 0.07514,-0.674511 -0.03316,0.5334 0.727781,0.838553 0.886178,1.225903 -0.09278,-0.331964 -0.447675,-0.541867 -0.616303,-0.741186 -0.05539,-0.131586 -0.01235,-0.355247 0.04762,-0.431447 -0.01799,0.357011 0.367595,0.635705 0.57397,0.835377 0.242358,0.235303 0.311503,0.443089 0.278695,0.613128 0.05292,0.01411 0.126294,0.06562 0.113947,0.153106 0.07761,-0.01799 0.156633,-0.107245 0.17533,-0.161573 0.0381,0.264937 -0.117827,0.545748 -0.2921,0.629356 0,0 0.04727,-0.126647 -0.03281,-0.223308 -0.07867,-0.0956 -0.301272,-0.09701 -0.37712,-0.09102 0,0 0.09278,-0.137231 0.05574,-0.206728 -0.04516,-0.08573 -0.481541,-0.04833 -0.676627,0.02258 0.06632,-0.0071 0.224014,0.01058 0.278694,0.03351 -0.03069,0.04551 -0.110772,0.237772 -0.05292,0.295275 0.05292,0.05256 0.122414,-0.03916 0.122414,-0.03916 0,0 -0.06809,0.210608 -0.01976,0.259291 0.04904,0.04833 0.153458,0.01411 0.153458,0.01411 -0.06491,0.164395 -0.318911,0.278342 -0.495653,0.278342 0.06315,-0.02011 0.16757,-0.13335 0.183445,-0.200378 -0.04657,0.02293 -0.16757,0.03634 -0.214489,0.02787 0.0575,-0.02328 0.172508,-0.171803 0.136172,-0.337256 -0.05186,-0.242358 -0.390172,-0.27305 -0.559505,-0.155928 0.05468,-0.162983 0.219075,-0.315383 0.348191,-0.365125 -0.07514,-0.02646 -0.163689,-0.04868 -0.258586,-0.06562 0.10795,-0.08855 0.379589,-0.160867 0.517878,-0.153106 -0.210961,-0.05468 -0.597253,0.01305 -0.773994,0.22225 0.05609,0 0.202141,0.02752 0.258586,0.04516 -0.243064,0.0441 -0.572911,0.269875 -0.670631,0.376414 0.02575,-0.140406 0.06526,-0.258939 0.03175,-0.343606 C 53.146137,6.87458 53.001847,6.824133 52.71398,6.8834 52.908361,6.689372 53.305588,6.568722 53.3324,6.462889 m 4.557183,2.333625 c 0,0.401461 -0.399344,0.714727 -0.851605,0.650875 0.115358,0.107597 0.394758,0.180622 0.54363,0.113241 -0.08502,0.153811 -0.494241,0.371828 -0.88018,0.269523 C 56.340183,9.733843 56.181433,9.388475 56.172261,9.169047 56.001517,9.339791 56.047731,9.618133 56.169461,9.7282 56.02835,9.69151 55.815978,9.545108 55.779994,9.282289 55.749654,9.056511 55.875244,8.79863 55.639589,8.591197 55.498808,8.467372 55.284672,8.290278 55.146031,8.181269 54.855341,7.953728 54.965408,7.786511 54.900144,7.666214 54.850054,7.573434 54.727988,7.521222 54.654963,7.436555 c -0.07373,-0.08537 -0.07091,-0.212019 -0.02963,-0.284691 -0.01235,0.1016 0.06032,0.177447 0.156987,0.20955 0.107244,0.03528 0.197555,0.006 0.288925,0.05927 0.110066,0.0635 0.05891,0.235303 0.138641,0.296334 0.07161,0.05398 0.25012,-0.01764 0.40252,0.105128 0.153105,0.122766 0.496005,0.408163 0.643819,0.529872 0.265642,0.218722 0.53975,-0.03069 0.448734,-0.281164 0.269875,0.159808 0.299508,0.606778 0.07514,0.762705 0.211314,0.04798 0.592667,-0.04657 0.592667,-0.352777 0,-0.187325 -0.172861,-0.319617 -0.296333,-0.340431 0.433563,-0.04057 0.813152,0.263525 0.813152,0.656167"
       style="fill:#231f20;fill-opacity:1;fill-rule:nonzero;stroke:none;stroke-width:0.352778"
       id="path1076-5"
       clip-path="none" />
  </g>
</svg>
