<?xml version="1.0" encoding="UTF-8"?>
<!-- Created with Inkscape (http://www.inkscape.org/) -->
<svg width="18.786mm" height="22.025mm" version="1.1" viewBox="0 0 18.786 22.025" xmlns="http://www.w3.org/2000/svg">
 <g>
  <path d="m0.26769 7.2214s0.78705 3.9688 0.52917 7.5847c0 0-1.1024 1.1024 0.08819 2.8882l-0.09878 1.9304h17.214l-0.09913-1.9304c1.1906-1.7858 0.08819-2.8882 0.08819-2.8882-0.25788-3.616 0.52917-7.5847 0.52917-7.5847l-0.50694-0.37465c0.11007-0.19861 0.38735-1.4213 0.38735-1.4213l-0.33584-4.0728c-1.0065 0.41522-1.6556-1.1074-1.6556-1.1074h-14.029s-0.64876 1.5226-1.6556 1.1074l-0.33549 4.0728s0.27693 1.2227 0.387 1.4213z" fill="#fff"/>
  <path d="m9.393 15.355c2.3745 0 4.3067 1.3035 4.3067 2.9062s-1.9322 2.9069-4.3067 2.9069c-2.3745 0-4.3067-1.3042-4.3067-2.9069s1.9322-2.9062 4.3067-2.9062" fill="#fff"/>
  <path d="m9.393 20.727c-2.0951 0-3.8657-1.1292-3.8657-2.4656s1.7706-2.4656 3.8657-2.4656c2.0951 0 3.8657 1.1292 3.8657 2.4656s-1.7706 2.4656-3.8657 2.4656m0 0.88194c2.6226 0 4.7477-1.499 4.7477-3.3475s-2.1251-3.3475-4.7477-3.3475c-2.6222 0-4.7477 1.499-4.7477 3.3475s2.1255 3.3475 4.7477 3.3475" fill="#deddde"/>
  <path d="m1.0484 3.1584c-0.22613-0.54716-0.33338-1.7071-0.33338-1.7071l0.0081-0.09842 0.1457-0.04516c0.34149-0.10583 1.3141-0.53164 1.3141-1.0806v-0.22719h14.421v0.22719c0 0.54892 0.97226 0.97472 1.3137 1.0806l0.14534 0.04516 0.0085 0.09842s-0.10724 1.1599-0.33338 1.7071l-0.1016-1.4658c-0.37641-0.13794-1.2912-0.54046-1.4605-1.2375h-13.565c-0.16969 0.69709-1.0844 1.0996-1.4605 1.2375zm-0.50941 15.264-3.53e-4 7.06e-4c0.0194 0 0.04269 0.0014 0.06385 0.0028 0.01834-0.25859 0.03739-0.55069 0.05539-0.87136-0.26458-0.41169-0.46884-0.87489-0.51188-1.3645-0.05327-0.60819 0.15028-1.1716 0.59937-1.6771 0-0.0889-0.0011-0.17992-0.0018-0.27058 0 0-0.31997-5.9722-0.61383-6.9264l-0.03775-0.12206 0.10936-0.06738c0.0049-0.0032 0.25964-0.1651 0.50976-0.43286 0 0 0.26317-0.2353 0.36054-0.51894 0.10795-0.23178 0.16263-0.4953 0.09666-0.77964-0.01094-0.0254-0.1337-0.31432-0.25859-0.68721l-0.05962 0.66181c0.06209 0.18239 0.115 0.37747 0.16475 0.57714-0.0695 0.14217-0.20038 0.36689-0.36266 0.46955-0.06879-0.33479-0.14781-0.65687-0.248-0.94509l-0.01658-0.04586 0.28646-3.194c-0.0035 0.47731 0.32173 1.5148 0.32173 1.5148 0.1076 0.65264 0.47343 1.5131 0.48542 1.5459 0.12806 0.54257-0.05856 1.0086-0.31291 1.3645 0.38206 2.1488 0.0099 9.8139-0.0381 10.705-0.17745-0.22507-0.33831-0.58914-0.42545-0.80574 0.01799-0.46426 0.03069-0.96626 0.03704-1.4863-0.20849 0.34184-0.29986 0.70661-0.266 1.0901 0.03845 0.44379 0.23354 0.87171 0.48578 1.2548 0.0127 0.0187 0.02399 0.03563 0.03563 0.05256 0.03422 0.05009 0.0695 0.09913 0.10513 0.14817 0.0081 0.01058 0.01235 0.01623 0.01235 0.01623v7.06e-4c0.55668 0.74648 1.2781 1.2739 1.3328 1.313 0.27376 0.14429 0.5454 0.31256 0.80821 0.48895h0.0042l0.05821 0.04198c0.18344 0.12453 0.36124 0.25365 0.53234 0.38347l0.04163 0.02999h-0.0025c0.32879 0.25082 0.62936 0.50165 0.87665 0.71967 0.32209 0.0035 0.63888 0.02575 0.91793 0.05221-0.29104-0.23248-0.54046-0.49142-0.73942-0.77188h-0.79128l-0.57644-0.45544h0.53693c-0.12136-0.35948-0.1845-0.68086-0.20426-0.9652-0.19085 0.25964-0.59796 0.65123-1.2079 0.41698 0.13829 0.03951 0.70626 0.12241 1.2164-0.94791l0.0014 0.0056c0.10195-0.84878 0.58455-1.234 0.58455-1.234-0.50094 0.9846-0.38488 1.8584-0.22225 2.3862 0.0028 0.0032 0.10478 0.14464 0.30974 0.14781-0.12418-0.31291-0.19438-0.64135-0.19438-0.98249 0-1.983 2.2416-3.5952 4.9957-3.5952 2.7548 0 4.996 1.6122 4.996 3.5952 0 0.34114-0.0702 0.66957-0.19403 0.98249 0.20496-0.0032 0.30656-0.14464 0.30939-0.14781 0.16263-0.52776 0.27905-1.4016-0.2219-2.3862 0 0 0.4826 0.38523 0.5842 1.234l0.0014-0.0056c0.51012 1.0703 1.0781 0.98742 1.2167 0.94791-0.60995 0.23424-1.0174-0.15734-1.2083-0.41698-0.0194 0.28434-0.08255 0.60572-0.20426 0.9652h0.53693l-0.57644 0.45544h-0.79093c-0.19932 0.28046-0.44873 0.5394-0.73942 0.77188 0.2787-0.02646 0.59549-0.04868 0.91793-0.05221 0.2473-0.21802 0.54751-0.46884 0.87665-0.71967h-0.0025l0.04127-0.02999c0.17145-0.12982 0.34854-0.25894 0.5327-0.38347l0.05821-0.04198h0.0042c0.26282-0.17639 0.5341-0.34466 0.80821-0.48895 0.05433-0.03916 0.77576-0.56656 1.3324-1.313v-7.06e-4s0.0046-0.0056 0.01235-0.01623c0.03598-0.04904 0.07091-0.09807 0.10513-0.14817 0.01164-0.01693 0.02328-0.03387 0.03563-0.05256 0.25259-0.38312 0.44697-0.81104 0.48578-1.2548 0.03387-0.38347-0.05715-0.74824-0.26564-1.0901 6e-3 0.52 0.01834 1.022 0.03669 1.4863-0.08714 0.21661-0.248 0.58067-0.42545 0.80574-0.04833-0.89147-0.42016-8.5566-0.03775-10.705-0.25435-0.35595-0.44097-0.82197-0.31291-1.3645 0.01129-0.03281 0.37747-0.89323 0.48542-1.5459 0 0 0.32526-1.0375 0.32103-1.5148l0.28681 3.194-0.01623 0.04586c-0.10019 0.28822-0.17921 0.6103-0.248 0.94509-0.16228-0.10266-0.29316-0.32738-0.36301-0.46955 0.04974-0.19967 0.10266-0.39476 0.16475-0.57714l-0.05962-0.66181c-0.12453 0.37289-0.2473 0.66181-0.25823 0.68721-0.06632 0.28434-0.01164 0.54786 0.09631 0.77964 0.09772 0.28363 0.36054 0.51894 0.36054 0.51894 0.25047 0.26776 0.50482 0.42968 0.51012 0.43286l0.10936 0.06738-0.0381 0.12206c-0.29351 0.95426-0.61348 6.9264-0.61348 6.9264-7.06e-4 0.09066-0.0018 0.18168-0.0018 0.27058 0.44873 0.50553 0.65264 1.0689 0.59902 1.6771-0.04339 0.48966-0.2473 0.95285-0.51153 1.3645 0.01764 0.32068 0.03669 0.61278 0.05468 0.87136 0.02187-0.0014 0.0448-0.0028 0.06456-0.0028l-3.53e-4 -7.06e-4c0.34502-0.02858 0.64735 0.16298 0.50059 0.40428-0.1464 0.242-0.39723 0.26811-0.39723 0.26811s0.0949-0.06033 0.17286-0.19861c0.03881-0.0695 0.0085-0.1016-0.03175-0.11748-0.02893-0.0049-0.05715-0.0099-0.08855-0.0127h-7.06e-4c-0.0635-0.0053-0.13018-0.0067-0.19438-6e-3 0.04127 0.53622 0.07444 0.86007 0.07655 0.87771l0.02681 0.25224h-2.8564c-0.33937 0.24236-0.65899 0.49671-0.93557 0.72919 1.0026-0.0088 1.632 0.49071 1.632 0.49071l-0.63853 0.2533 3.52e-4 -3.53e-4c-0.30833 0.13053-0.79692 0.31644-1.24 0.40393 0.0032 7.05e-4 0.0071 0.0018 0.0071 0.0018-0.02716 0.0049-0.05045 0.0085-0.0769 0.01305-0.0194 0.0035-0.0381 0.0074-0.0568 0.0099-2.2394 0.3877-2.4733 0.17427-2.4733 0.17427 0.96344 0 1.5709-0.6283 1.5709-0.6283l0.05539-0.05609c0.02293-0.02222 0.14358-0.14358 0.33655-0.32456-0.14252 0.0078-0.28222 0.01764-0.41769 0.02893h-0.0018c-0.03457 0.0032-0.06703 0.0067-0.10089 0.0099-0.06703 0.0078-0.16404 0.02364-0.2734 0.05186-0.0635 0.01588-0.13229 0.03704-0.20285 0.06244-0.01094 0.0039-0.02152 0.0078-0.03246 0.01235-0.07303 0.02787-0.14817 0.06138-0.22084 0.10195-0.0088 0.0046-0.01658 0.01094-0.02505 0.01623-0.06138 0.03528-0.11994 0.07832-0.17745 0.12488-0.01764 0.01482-0.03493 0.02963-0.05221 0.04516-0.06315 0.05856-0.12347 0.12241-0.17357 0.19861l-1.8299 0.20884 0.01446-6e-3c-0.24518 0.02716-0.4946 0.04551-0.75001 0.04551-0.2547 0-0.50412-0.01834-0.74965-0.04551l0.01446 6e-3 -1.8299-0.20884c-0.05115-0.07691-0.11183-0.14146-0.17604-0.20002-0.01658-0.01552-0.03387-0.02999-0.05115-0.04516-0.05891-0.04762-0.1203-0.09172-0.18309-0.12876-0.0074-0.0039-0.01376-0.0088-0.02081-0.0127-0.07373-0.04057-0.14817-0.07373-0.22084-0.1016-0.01411-0.0053-0.02752-0.01023-0.04057-0.01482-0.0695-0.02434-0.13829-0.04621-0.20038-0.06138-0.10654-0.02575-0.19932-0.04127-0.26458-0.04904-0.03387-0.0032-0.06668-0.0067-0.10089-0.0099h-0.0018c-0.13547-0.01129-0.27552-0.02117-0.41769-0.02893 0.19297 0.18098 0.31362 0.30233 0.3362 0.32456l0.05539 0.05609s0.60748 0.6283 1.5706 0.6283c0 0-0.23354 0.21343-2.4726-0.17427-0.01905-0.0025-0.03775-0.0064-0.0568-0.0099-0.02681-0.0046-0.05009-0.0081-0.0769-0.01305 0 0 0.0039-0.0011 0.0067-0.0018-0.44344-0.08749-0.93169-0.2734-1.2397-0.40393l3.53e-4 3.53e-4 -0.63853-0.2533s0.629-0.49953 1.632-0.49071c-0.27658-0.23248-0.59655-0.48683-0.93557-0.72919h-2.8568l0.02681-0.25224c0.0021-0.01764 0.03563-0.34149 0.07691-0.87771-0.06491-7.06e-4 -0.13088 7.05e-4 -0.19473 6e-3h-7.06e-4c-0.0314 0.0028-0.05962 0.0078-0.08855 0.0127-0.03986 0.01588-0.07091 0.04798-0.0321 0.11748 0.07796 0.13829 0.17286 0.19861 0.17286 0.19861s-0.25012-0.02611-0.39652-0.26811c-0.14711-0.2413 0.15522-0.43286 0.50059-0.40428m17.268-7.0372c0.12453-1.313 0.29104-3.2942 0.49918-4.0485-0.07479-0.05327-0.18062-0.13547-0.29633-0.2413-0.18203 1.2294-0.21449 3.2508-0.20285 4.2898m-0.49812 7.1635c0.14217-0.03845 0.28116-0.06385 0.41769-0.08008-0.0078-0.1076-0.01623-0.22437-0.02399-0.34396-0.13194 0.15452-0.26529 0.29774-0.3937 0.42404m-1.1635 0.88582h1.6619c-0.01482-0.15311-0.03457-0.37218-0.05574-0.64064-0.49742 0.05962-1.0583 0.31186-1.6062 0.64064m-2.534 2.0048c0.0053 0.0042 0.01094 0.0081 0.01729 0.01164 0.24483 0.13794 1.0513-0.10372 1.6947-0.3676-0.30409-0.10266-0.73131-0.1397-1.1776-0.1404-0.24977 0.2226-0.43709 0.40076-0.53446 0.49636m-4.2185-0.07867c1.6133 0 3.0268-0.58984 3.8213-1.4707 0.06421-0.07126 0.12453-0.14429 0.18098-0.21837 6e-3 -0.0081 0.01094-0.01658 0.01693-0.02434 0.0508-0.06915 0.09948-0.13935 0.14288-0.21202 0.21625-0.3623 0.33761-0.75847 0.33761-1.1737 0-1.7085-2.0186-3.0992-4.4997-3.0992-2.4807 0-4.4993 1.3906-4.4993 3.0992 0 0.41522 0.12136 0.81139 0.33761 1.1737 0.04339 0.07267 0.09172 0.14288 0.14358 0.21272 0.0053 0.0078 0.01058 0.01552 0.01658 0.02364 0.05644 0.07408 0.11677 0.14711 0.18027 0.21837 0.79446 0.88089 2.2084 1.4707 3.8213 1.4707m-4.752-0.41769c-0.44626 7.05e-4 -0.87348 0.03775-1.1776 0.1404 0.64347 0.26388 1.4492 0.50553 1.6944 0.3676 0.0063-0.0035 0.01235-0.0074 0.01729-0.01164-0.09737-0.0956-0.28434-0.27376-0.5341-0.49636m-3.5814-2.4744c0.13723 0.01623 0.27552 0.04163 0.41839 0.08008-0.12841-0.1263-0.26211-0.26952-0.39405-0.42404-0.0078 0.11959-0.01587 0.23636-0.02434 0.34396m-0.08008 0.96591h1.6619c-0.54786-0.32879-1.1091-0.58102-1.6062-0.64064-0.02187 0.26846-0.04092 0.48754-0.05574 0.64064m3.53e-4 -8.0493c0.01164-1.0389-0.02152-3.0603-0.2032-4.2898-0.11571 0.10583-0.22154 0.18803-0.29598 0.2413 0.20779 0.75424 0.3743 2.7354 0.49918 4.0485" fill="#231f20"/>
 </g>
</svg>
