<?xml version="1.0" encoding="UTF-8"?>
<!-- Created with Inkscape (http://www.inkscape.org/) -->
<svg width="58.188mm" height="21.815mm" version="1.1" viewBox="0 0 58.188 21.815" xmlns="http://www.w3.org/2000/svg">
 <path d="m58.063 1.3906c-0.40252-0.12488-1.4464-0.58632-1.4464-1.2143v-0.17639h-55.046v0.17639c0 0.62618-1.0446 1.089-1.4467 1.2143l-0.12418 0.03845v20.386l1.1906-0.0014 0.0508-0.09066c0.01023-0.01976 0.24765-0.4251 0.8763-0.50941 0.05962 0.07867 0.14958 0.13335 0.25612 0.13335 0.10301 0 0.19085-0.0508 0.25082-0.12524 0.44697 0.05715 0.95321 0.24271 1.5152 0.56938l0.04092 0.02399h49.826l0.0409-0.02399c0.56198-0.32667 1.0682-0.51223 1.5152-0.56938 0.0596 0.07444 0.14782 0.12524 0.25048 0.12524 0.10653 0 0.19685-0.05468 0.25646-0.13335 0.62865 0.08431 0.86572 0.48966 0.8756 0.508l0.0501 0.09349h1.192v-20.386zm-0.57044 1.8094c0.18803 0.32844 0.30374 0.57468 0.34184 0.65758v13.268c-0.22719-1.6267-0.34184-3.096-0.34184-4.3833zm-1.2118-2.8473c0.14464 0.75459 1.1874 1.1984 1.5536 1.3321v1.3938c-0.44697-0.80081-1.3226-2.104-2.5569-2.7259zm-54.374 0h1.0022c-1.234 0.62195-2.1096 1.9251-2.5566 2.7259v-1.3938c0.36583-0.1337 1.4093-0.5775 1.5543-1.3321m-1.5543 3.5048c0.0381-0.08326 0.15381-0.32949 0.34184-0.65828v9.5426c0 1.2873-0.11465 2.7566-0.34184 4.3833zm56.843 17.604c-0.12665-0.17251-0.46355-0.52634-1.1052-0.6029-0.0568-0.09666-0.15699-0.16475-0.27728-0.16475-0.12489 0-0.22966 0.07267-0.2847 0.17568-0.48612 0.06068-1.0266 0.254-1.6168 0.59196h-49.637c-0.5902-0.33796-1.1303-0.53128-1.6168-0.59196-0.05468-0.10301-0.15981-0.17568-0.28469-0.17568-0.11994 0-0.22049 0.06809-0.27693 0.16475-0.6417 0.07655-0.97861 0.43039-1.1053 0.6029h-0.63888v-3.1736c0.3429-2.0913 0.51823-3.9568 0.51823-5.5464v-9.839c0.64911-1.0467 1.8602-2.5502 3.4618-2.5502h49.522c1.6006 0 2.8127 1.5046 3.4622 2.5513v9.8379c0 1.5896 0.17533 3.4551 0.51823 5.5464v3.1736z" fill="#231f20"/>
</svg>
